if (_typeface_js && _typeface_js.loadFace) _typeface_js.loadFace({"glyphs":{"0":{"ha":949,"x_min":31,"x_max":920,"o":"m 558 449 q 539 261 558 314 q 475 208 519 208 q 411 261 430 208 q 392 449 392 315 q 411 636 392 583 q 475 689 430 689 q 538 636 519 689 q 558 449 557 583 m 920 449 q 809 782 920 653 q 475 911 699 911 q 141 782 251 911 q 31 449 31 654 q 141 115 31 244 q 475 -14 251 -14 q 809 115 699 -14 q 920 449 920 244 "},"1":{"ha":568,"x_min":-7,"x_max":513,"o":"m 513 0 l 513 897 l 240 897 q 53 798 180 798 l -7 798 l -7 663 l 151 663 l 151 0 l 513 0 "},"2":{"ha":876,"x_min":28,"x_max":844,"o":"m 412 689 q 460 665 444 689 q 476 604 476 640 q 374 399 477 482 q 28 129 217 269 l 28 0 l 844 0 l 844 222 l 429 222 q 715 403 654 345 q 777 469 745 431 q 838 632 838 541 q 730 842 837 774 q 429 911 623 911 q 134 837 235 911 q 32 625 32 762 q 50 501 32 565 l 383 469 q 346 576 346 518 q 412 689 346 689 "},"3":{"ha":861,"x_min":31,"x_max":833,"o":"m 833 256 q 765 415 834 358 q 575 472 696 472 q 534 471 548 472 q 739 553 677 498 q 802 701 802 607 q 701 852 802 794 q 429 911 601 911 q 160 849 256 911 q 64 675 64 787 q 77 590 64 636 l 363 568 q 353 619 353 593 q 412 689 353 689 q 453 671 438 689 q 468 628 468 654 q 430 545 468 578 q 317 513 392 513 l 297 513 l 297 418 l 317 418 q 454 392 416 419 q 492 294 492 365 q 476 234 492 260 q 427 208 460 208 q 363 286 363 208 q 379 359 362 322 l 57 334 q 31 215 31 269 q 125 49 31 111 q 420 -14 221 -14 q 727 59 620 -14 q 833 256 833 132 "},"4":{"ha":948,"x_min":17,"x_max":935,"o":"m 435 366 l 222 366 l 435 656 l 435 366 m 935 170 l 935 366 l 796 366 l 796 897 l 412 897 l 17 379 l 17 170 l 435 170 l 435 0 l 796 0 l 796 170 l 935 170 "},"5":{"ha":903,"x_min":40,"x_max":872,"o":"m 872 315 q 808 518 872 439 q 637 597 745 597 q 456 538 530 597 q 359 376 382 478 l 383 668 l 814 668 l 814 897 l 113 897 l 61 349 l 385 306 q 447 364 399 364 q 511 278 511 364 q 494 210 511 239 q 444 180 477 180 q 383 258 383 180 l 383 272 l 49 248 q 40 187 40 214 q 456 -14 41 -14 q 772 77 673 -14 q 872 315 872 167 "},"6":{"ha":929,"x_min":33,"x_max":904,"o":"m 432 227 q 415 291 415 253 q 432 358 415 329 q 480 387 449 387 q 527 361 511 387 q 543 296 543 334 q 526 230 543 258 q 479 201 510 201 q 440 214 449 201 q 432 227 432 227 m 904 314 q 840 486 904 416 q 643 555 775 555 q 492 511 558 556 q 406 396 427 467 q 423 631 407 566 q 486 697 439 697 q 539 616 539 697 q 536 587 539 607 l 823 625 q 829 689 829 654 q 497 911 829 911 q 144 783 256 911 q 33 435 33 654 q 472 -14 33 -14 q 789 81 673 -14 q 904 314 904 176 "},"7":{"ha":790,"x_min":21,"x_max":790,"o":"m 790 897 l 21 897 l 21 661 l 547 661 q 343 513 427 617 q 184 0 190 321 l 546 0 q 790 750 561 521 l 790 897 "},"8":{"ha":922,"x_min":28,"x_max":895,"o":"m 533 297 q 461 183 533 183 q 389 297 389 183 q 406 374 389 342 q 461 407 424 407 q 516 374 498 407 q 533 297 533 342 m 404 635 q 461 737 404 736 q 518 635 518 736 q 461 533 518 533 q 404 584 404 533 q 404 635 404 635 m 895 252 q 819 415 894 353 q 633 481 745 477 q 796 555 738 503 q 854 686 854 607 q 751 850 854 790 q 461 911 648 911 q 171 850 274 910 q 68 686 68 791 q 125 550 68 606 q 289 481 183 494 q 102 408 176 465 q 28 252 28 350 q 152 52 28 118 q 461 -14 277 -14 q 770 53 646 -14 q 895 252 895 119 "},"9":{"ha":926,"x_min":28,"x_max":899,"o":"m 406 667 q 453 696 423 696 q 500 671 483 696 q 517 607 517 646 q 500 539 517 568 q 452 510 484 510 q 405 536 421 510 q 389 601 389 563 q 406 667 389 639 m 28 597 q 87 416 28 491 q 289 342 147 342 q 439 386 374 341 q 526 501 505 431 q 515 264 526 329 q 460 200 503 200 q 416 257 416 200 q 429 311 417 281 l 65 267 q 58 210 58 236 q 164 45 58 103 q 463 -14 270 -14 q 899 488 899 -14 q 798 806 899 701 q 460 911 697 911 q 142 822 257 910 q 28 597 28 734 "}," ":{"ha":284,"x_min":0,"x_max":0,"o":""},"!":{"ha":472,"x_min":56,"x_max":416,"o":"m 403 0 l 403 265 l 69 265 l 69 0 l 403 0 m 56 925 l 56 595 l 180 322 l 292 322 l 416 595 l 416 925 l 56 925 "},"\"":{"ha":687,"x_min":49,"x_max":639,"o":"m 639 547 l 639 925 l 393 925 l 393 547 l 639 547 m 294 547 l 294 925 l 49 925 l 49 547 l 294 547 "},"#":{"ha":1083,"x_min":35,"x_max":1048,"o":"m 456 558 l 659 558 l 628 372 l 425 372 l 456 558 m 366 0 l 396 193 l 599 193 l 568 0 l 764 0 l 794 193 l 960 193 l 990 372 l 823 372 l 854 558 l 1019 558 l 1048 737 l 884 737 l 914 925 l 718 925 l 688 737 l 485 737 l 515 925 l 319 925 l 289 737 l 123 737 l 94 558 l 260 558 l 229 372 l 65 372 l 35 193 l 200 193 l 170 0 l 366 0 "},"$":{"ha":913,"x_min":35,"x_max":863,"o":"m 355 -153 l 505 -153 l 505 -12 q 787 90 711 -1 q 863 292 863 180 q 787 467 863 403 q 534 578 712 530 q 429 616 456 598 q 403 657 403 633 q 469 699 403 699 q 770 603 593 699 l 861 796 q 574 903 701 882 l 574 1050 l 424 1050 l 424 909 q 156 827 244 902 q 68 638 68 753 q 132 455 68 524 q 376 335 196 387 q 500 289 472 309 q 529 245 529 269 q 465 203 529 203 q 283 233 378 203 q 127 306 189 263 l 35 111 q 355 -7 200 14 l 355 -153 "},"%":{"ha":1320,"x_min":35,"x_max":1286,"o":"m 340 572 q 307 549 332 549 q 273 572 281 549 q 265 656 265 596 q 273 740 265 715 q 307 764 282 764 q 340 740 332 764 q 349 656 349 715 q 345 584 349 596 q 340 572 340 572 m 579 656 q 506 842 579 772 q 307 911 433 911 q 109 842 182 911 q 35 655 35 772 q 106 470 35 538 q 308 401 179 401 q 508 471 437 401 q 579 656 579 540 m 1047 157 q 1014 133 1039 133 q 981 157 989 133 q 972 240 972 180 q 981 324 972 300 q 1014 349 989 349 q 1047 324 1039 349 q 1055 240 1055 300 q 1047 157 1055 180 m 978 897 l 807 897 l 346 0 l 517 0 l 978 897 m 1213 427 q 1014 496 1139 496 q 815 427 889 496 q 742 240 742 357 q 813 55 742 123 q 1015 -14 886 -14 q 1215 55 1143 -14 q 1286 240 1286 123 q 1213 427 1286 357 "},"&":{"ha":1400,"x_min":21,"x_max":1394,"o":"m 726 785 q 768 803 742 803 q 825 730 825 803 q 764 618 825 656 q 737 660 747 643 q 711 733 711 700 q 719 775 711 766 q 726 785 726 785 m 619 157 q 427 296 426 157 q 497 458 427 392 q 701 164 614 279 q 619 157 659 157 m 990 757 q 920 897 990 852 q 741 942 849 942 q 484 884 572 942 q 396 730 396 825 q 463 526 396 635 l 431 526 q 126 451 232 527 q 21 251 21 374 q 132 56 21 127 q 442 -16 241 -16 q 794 52 643 -16 q 898 -2 839 13 q 1054 -17 957 -17 q 1305 52 1215 -16 q 1394 204 1394 119 q 1350 304 1395 263 q 1226 347 1305 345 l 1139 250 q 1183 180 1183 222 q 1147 139 1183 138 q 1029 232 1095 139 q 1108 427 1108 334 q 1053 576 1108 521 l 932 530 q 968 416 968 476 q 953 345 968 382 q 798 568 937 369 q 941 640 892 587 q 990 757 990 692 "},"'":{"ha":342,"x_min":49,"x_max":294,"o":"m 294 547 l 294 925 l 49 925 l 49 547 l 294 547 "},"(":{"ha":600,"x_min":62,"x_max":607,"o":"m 471 -231 l 607 -94 q 396 415 396 110 q 607 925 396 720 l 471 1061 q 62 415 62 825 q 471 -231 62 5 "},")":{"ha":600,"x_min":-7,"x_max":537,"o":"m -7 -94 l 129 -231 q 537 415 537 5 q 129 1061 537 825 l -7 925 q 204 415 204 720 q -7 -94 204 110 "},"*":{"ha":677,"x_min":49,"x_max":629,"o":"m 629 703 l 532 871 l 346 657 l 436 925 l 241 925 l 332 657 l 146 871 l 49 703 l 323 647 l 52 591 l 149 424 l 332 632 l 241 370 l 436 370 l 346 632 l 529 424 l 627 591 l 354 647 l 629 703 "},"+":{"ha":758,"x_min":56,"x_max":703,"o":"m 498 0 l 498 220 l 703 220 l 703 428 l 498 428 l 498 647 l 260 647 l 260 428 l 56 428 l 56 220 l 260 220 l 260 0 l 498 0 "},",":{"ha":414,"x_min":49,"x_max":366,"o":"m 366 293 l 49 293 l 49 0 l 186 0 q 52 -147 186 -134 l 62 -236 q 284 -166 203 -236 q 366 36 366 -96 l 366 293 "},"-":{"ha":635,"x_min":69,"x_max":567,"o":"m 567 253 l 567 488 l 69 488 l 69 253 l 567 253 "},".":{"ha":414,"x_min":49,"x_max":366,"o":"m 366 0 l 366 293 l 49 293 l 49 0 l 366 0 "},"/":{"ha":699,"x_min":0,"x_max":677,"o":"m 677 1007 l 421 1007 l 0 -228 l 257 -228 l 677 1007 "},":":{"ha":427,"x_min":56,"x_max":372,"o":"m 372 0 l 372 252 l 56 252 l 56 0 l 372 0 m 372 334 l 372 585 l 56 585 l 56 334 l 372 334 "},";":{"ha":427,"x_min":56,"x_max":372,"o":"m 372 252 l 56 252 l 56 0 l 193 0 q 58 -147 193 -134 l 69 -236 q 291 -166 210 -236 q 372 36 372 -96 l 372 252 m 372 334 l 372 585 l 56 585 l 56 334 l 372 334 "},"<":{"ha":668,"x_min":41,"x_max":612,"o":"m 612 433 l 612 661 l 41 403 l 41 244 l 612 -14 l 612 214 l 298 323 l 612 433 "},"=":{"ha":677,"x_min":56,"x_max":623,"o":"m 623 74 l 623 254 l 56 254 l 56 74 l 623 74 m 623 363 l 623 543 l 56 543 l 56 363 l 623 363 "},">":{"ha":668,"x_min":56,"x_max":627,"o":"m 370 323 l 56 214 l 56 -14 l 627 244 l 627 403 l 56 661 l 56 433 l 370 323 "},"?":{"ha":866,"x_min":35,"x_max":839,"o":"m 618 0 l 618 265 l 285 265 l 285 0 l 618 0 m 146 869 q 35 677 35 795 q 85 519 35 599 l 378 567 q 364 627 364 599 q 424 694 364 694 q 467 675 453 694 q 479 629 480 656 q 357 475 479 517 l 412 311 q 744 425 649 340 q 839 644 839 509 q 735 861 840 781 q 444 942 631 942 q 146 869 256 942 "},"@":{"ha":1116,"x_min":41,"x_max":1075,"o":"m 577 553 q 597 515 597 553 q 584 436 597 477 q 551 395 571 395 q 530 434 530 395 q 544 513 530 473 q 577 553 557 553 m 489 705 q 326 631 382 705 q 269 437 269 556 q 428 245 270 245 q 635 435 592 245 l 633 411 q 819 245 633 245 q 1014 328 953 245 q 1075 545 1075 411 q 939 833 1075 724 q 590 942 802 942 q 191 806 340 942 q 41 460 42 669 q 181 117 41 250 q 570 -16 320 -16 q 991 83 819 -16 l 949 186 q 581 99 768 99 q 292 193 395 99 q 189 456 189 286 q 302 724 189 627 q 580 821 415 821 q 840 747 745 821 q 935 539 935 674 q 909 411 935 467 q 851 355 884 355 q 818 386 818 355 q 821 403 818 389 l 867 665 l 699 665 l 637 519 l 637 528 q 600 656 637 607 q 489 705 561 705 "},"A":{"ha":1137,"x_min":14,"x_max":1131,"o":"m 528 647 l 631 326 l 425 326 l 528 647 m 787 925 l 355 925 l 14 0 l 321 0 l 361 129 l 693 129 l 734 0 l 1131 0 l 787 925 "},"B":{"ha":996,"x_min":56,"x_max":982,"o":"m 598 260 q 528 236 575 236 l 431 236 l 431 400 l 521 400 q 595 378 570 400 q 621 320 621 357 q 598 260 621 283 m 507 538 l 431 538 l 431 689 l 514 689 q 572 668 553 689 q 591 617 591 647 q 573 563 591 587 q 507 538 555 538 m 895 409 q 660 471 808 471 l 642 471 q 953 715 953 500 q 879 865 953 804 q 648 925 805 925 l 56 925 l 56 0 l 667 0 q 899 66 817 0 q 982 240 982 133 q 939 378 982 347 q 895 409 895 409 "},"C":{"ha":1019,"x_min":28,"x_max":991,"o":"m 559 675 q 663 633 628 674 q 697 524 697 593 l 972 572 q 852 849 963 757 q 551 942 742 941 q 164 804 300 942 q 28 456 28 667 q 155 114 28 245 q 539 -17 282 -17 q 862 86 741 -17 q 991 335 983 189 l 718 404 q 570 250 694 250 q 419 463 419 250 q 454 615 420 555 q 559 675 490 675 "},"D":{"ha":1066,"x_min":56,"x_max":1047,"o":"m 672 463 q 632 308 673 372 q 505 244 591 244 l 431 244 l 431 681 l 505 681 q 632 617 592 680 q 672 463 672 554 m 916 796 q 547 925 783 925 l 56 925 l 56 0 l 547 0 q 916 129 783 0 q 1047 463 1047 258 q 916 796 1047 667 "},"E":{"ha":913,"x_min":56,"x_max":865,"o":"m 865 0 l 865 253 l 431 253 l 431 364 l 765 364 l 765 572 l 431 572 l 431 672 l 857 672 l 857 925 l 56 925 l 56 0 l 865 0 "},"F":{"ha":883,"x_min":56,"x_max":863,"o":"m 431 0 l 431 354 l 771 354 l 771 562 l 431 562 l 431 672 l 863 672 l 863 925 l 56 925 l 56 0 l 431 0 "},"G":{"ha":1082,"x_min":25,"x_max":1034,"o":"m 602 330 l 705 330 q 583 227 683 227 q 469 294 505 227 q 432 460 432 361 q 473 616 432 559 q 589 675 513 675 q 725 533 707 675 l 1007 591 q 883 853 1001 764 q 581 942 765 943 q 172 810 319 942 q 25 461 25 680 q 153 113 26 243 q 515 -17 281 -18 q 695 31 615 -17 q 803 143 775 79 l 835 0 l 1034 0 l 1034 475 l 602 475 l 602 330 "},"H":{"ha":1105,"x_min":56,"x_max":1050,"o":"m 1050 0 l 1050 925 l 675 925 l 675 597 l 431 597 l 431 925 l 56 925 l 56 0 l 431 0 l 431 330 l 675 330 l 675 0 l 1050 0 "},"I":{"ha":500,"x_min":62,"x_max":437,"o":"m 437 0 l 437 925 l 62 925 l 62 0 l 437 0 "},"J":{"ha":900,"x_min":29,"x_max":859,"o":"m 859 925 l 484 925 l 484 355 q 401 252 484 252 q 330 319 330 252 q 359 415 330 362 l 140 503 q 29 262 29 388 q 125 60 29 136 q 420 -17 221 -17 q 809 158 715 -17 q 849 270 840 213 q 859 396 859 327 l 859 925 "},"K":{"ha":1095,"x_min":56,"x_max":1084,"o":"m 431 0 l 431 183 l 507 290 l 643 0 l 1084 0 l 800 549 l 1075 925 l 667 925 l 431 595 l 431 925 l 56 925 l 56 0 l 431 0 "},"L":{"ha":854,"x_min":56,"x_max":823,"o":"m 823 0 l 823 250 l 431 250 l 431 925 l 56 925 l 56 0 l 823 0 "},"M":{"ha":1385,"x_min":56,"x_max":1331,"o":"m 1331 0 l 1331 925 l 806 925 l 665 482 l 511 925 l 56 925 l 56 0 l 347 0 l 347 574 l 532 0 l 775 0 l 956 574 l 956 0 l 1331 0 "},"N":{"ha":1119,"x_min":56,"x_max":1064,"o":"m 389 0 l 389 416 l 701 0 l 1064 0 l 1064 925 l 730 925 l 730 507 l 418 925 l 56 925 l 56 0 l 389 0 "},"O":{"ha":1122,"x_min":25,"x_max":1097,"o":"m 673 310 q 562 250 639 250 q 449 310 484 250 q 414 463 414 370 q 449 615 415 555 q 561 675 483 675 q 673 615 639 675 q 708 463 708 555 q 691 340 708 370 q 673 310 673 310 m 956 803 q 562 942 814 942 q 167 803 309 942 q 25 463 25 664 q 167 122 26 261 q 561 -17 308 -17 q 956 122 814 -17 q 1097 463 1097 261 q 1026 733 1097 664 q 956 803 956 803 "},"P":{"ha":1025,"x_min":56,"x_max":1018,"o":"m 538 486 l 431 486 l 431 663 l 538 663 q 614 639 585 663 q 643 577 643 615 q 617 513 643 539 q 538 486 591 486 m 589 925 l 56 925 l 56 0 l 431 0 l 431 322 l 600 322 q 916 401 812 323 q 1018 618 1019 480 q 911 840 1018 755 q 589 925 805 925 "},"Q":{"ha":1122,"x_min":25,"x_max":1097,"o":"m 673 310 q 562 250 639 250 q 449 310 484 250 q 414 463 414 370 q 449 615 415 555 q 561 675 483 675 q 673 615 639 675 q 708 463 708 555 q 691 340 708 370 q 673 310 673 310 m 673 -241 q 1023 -174 891 -241 l 1000 -57 q 842 -96 910 -96 q 753 -81 774 -96 q 733 -29 733 -65 l 733 3 q 1002 174 907 47 q 1097 463 1097 300 q 956 803 1097 664 q 562 942 814 942 q 167 803 309 942 q 25 463 25 664 q 119 174 25 300 q 387 4 214 49 l 387 -26 q 446 -187 387 -133 q 673 -241 505 -241 "},"R":{"ha":1109,"x_min":56,"x_max":1103,"o":"m 557 509 l 431 509 l 431 663 l 571 663 q 645 642 619 663 q 671 587 671 622 q 640 530 671 552 q 557 509 610 509 m 1046 675 q 939 857 1046 789 q 616 925 833 925 l 56 925 l 56 0 l 431 0 l 431 355 l 511 355 q 567 311 550 356 q 608 163 579 270 q 686 0 637 57 l 1103 0 q 1021 140 1046 63 q 997 228 1013 168 q 924 376 970 332 q 783 421 878 421 q 745 419 758 420 q 977 508 909 438 q 1046 675 1046 578 "},"S":{"ha":997,"x_min":28,"x_max":966,"o":"m 966 301 q 879 496 966 425 q 591 610 791 568 q 460 644 489 631 q 432 681 432 658 q 500 714 432 714 q 868 624 675 714 l 953 828 q 749 910 867 879 q 510 942 631 941 q 168 867 279 943 q 57 657 57 791 q 137 445 57 524 q 412 328 217 366 q 559 291 526 304 q 591 254 591 278 q 521 215 591 215 q 129 322 319 215 l 28 122 q 253 19 125 56 q 511 -17 380 -18 q 852 68 739 -17 q 966 301 966 153 "},"T":{"ha":975,"x_min":21,"x_max":954,"o":"m 954 647 l 954 925 l 21 925 l 21 647 l 300 647 l 300 0 l 675 0 l 675 647 l 954 647 "},"U":{"ha":1033,"x_min":49,"x_max":985,"o":"m 985 372 l 985 925 l 640 925 l 640 368 q 616 281 640 311 q 532 250 591 250 q 448 281 472 250 q 424 368 423 311 l 424 925 l 49 925 l 49 372 q 112 151 49 243 q 534 -17 227 -17 q 847 64 734 -17 q 985 372 985 162 "},"V":{"ha":1082,"x_min":7,"x_max":1078,"o":"m 1078 925 l 755 925 l 587 410 l 419 925 l 7 925 l 359 0 l 757 0 l 1078 925 "},"W":{"ha":1516,"x_min":7,"x_max":1510,"o":"m 953 925 l 623 925 l 503 493 l 389 925 l 7 925 l 279 0 l 614 0 l 766 490 l 903 0 l 1249 0 l 1510 925 l 1200 925 l 1074 493 l 953 925 "},"X":{"ha":1069,"x_min":7,"x_max":1069,"o":"m 351 0 l 505 211 l 646 0 l 1069 0 l 721 476 l 1063 925 l 715 925 l 566 697 l 421 925 l 7 925 l 330 450 l 12 0 l 351 0 "},"Y":{"ha":1030,"x_min":7,"x_max":1023,"o":"m 701 0 l 701 325 l 1023 925 l 676 925 l 536 623 l 400 925 l 7 925 l 326 326 l 326 0 l 701 0 "},"Z":{"ha":987,"x_min":49,"x_max":943,"o":"m 943 0 l 943 236 l 539 236 l 926 743 l 926 925 l 64 925 l 64 692 l 456 692 l 49 170 l 49 0 l 943 0 "},"[":{"ha":544,"x_min":62,"x_max":503,"o":"m 503 -214 l 503 -75 l 396 -75 l 396 880 l 503 880 l 503 1019 l 62 1019 l 62 -214 l 503 -214 "},"\\":{"ha":699,"x_min":21,"x_max":699,"o":"m 441 -228 l 699 -228 l 278 1007 l 21 1007 l 441 -228 "},"]":{"ha":544,"x_min":41,"x_max":482,"o":"m 482 -214 l 482 1019 l 41 1019 l 41 880 l 149 880 l 149 -75 l 41 -75 l 41 -214 l 482 -214 "},"^":{"ha":703,"x_min":14,"x_max":689,"o":"m 220 925 l 14 559 l 271 559 l 351 734 l 432 559 l 689 559 l 484 925 l 220 925 "},"_":{"ha":729,"x_min":-1,"x_max":730,"o":"m 730 -197 l 730 -81 l -1 -81 l -1 -197 l 730 -197 "},"`":{"ha":441,"x_min":35,"x_max":393,"o":"m 176 715 l 393 715 l 325 925 l 35 925 l 176 715 "},"a":{"ha":890,"x_min":32,"x_max":873,"o":"m 444 187 q 404 139 444 138 q 366 175 366 139 q 444 229 365 220 l 444 187 m 221 -14 q 380 17 311 -14 q 484 111 449 47 q 556 20 504 53 q 669 -14 608 -14 q 787 0 729 -15 q 873 43 846 15 l 873 160 q 833 150 858 151 q 804 193 804 151 l 804 395 q 712 597 804 534 q 435 661 620 661 q 152 603 251 661 q 53 449 53 545 q 82 342 53 397 l 395 408 q 385 452 385 433 q 414 489 385 489 q 443 452 443 489 l 443 328 q 323 335 374 335 q 32 164 32 335 q 82 34 32 81 q 221 -14 132 -14 "},"b":{"ha":891,"x_min":49,"x_max":871,"o":"m 498 218 q 458 187 486 187 q 420 218 431 187 q 410 323 410 250 q 420 427 410 396 q 459 458 431 458 q 499 427 488 458 q 510 323 510 396 q 504 234 510 250 q 498 218 498 218 m 603 661 q 410 522 468 661 l 410 925 l 49 925 l 49 0 l 256 0 l 326 160 q 568 -14 379 -14 q 793 81 715 -14 q 871 324 871 176 q 804 567 871 472 q 603 661 738 662 "},"c":{"ha":770,"x_min":20,"x_max":745,"o":"m 465 400 q 464 368 465 382 l 733 386 q 736 425 736 408 q 650 598 736 535 q 418 661 564 661 q 119 573 218 661 q 20 323 20 485 q 418 -14 19 -14 q 659 47 574 -14 q 745 203 745 109 q 737 257 744 233 l 469 283 l 469 277 q 429 187 469 187 q 380 323 380 187 q 429 460 380 460 q 465 400 465 460 "},"d":{"ha":891,"x_min":21,"x_max":843,"o":"m 473 431 q 481 324 481 403 q 473 216 481 245 q 435 187 464 187 q 395 215 407 187 q 382 320 382 243 q 393 428 381 397 q 435 458 406 458 q 473 431 464 458 m 21 323 q 47 161 21 235 q 140 38 73 90 q 305 -14 206 -14 q 469 34 404 -14 q 566 160 534 82 l 633 0 l 843 0 l 843 925 l 482 925 l 482 522 q 404 623 456 584 q 285 661 353 661 q 87 567 154 662 q 21 323 21 472 "},"e":{"ha":800,"x_min":25,"x_max":765,"o":"m 471 414 q 468 378 471 406 l 386 378 q 430 489 389 489 q 471 414 471 489 m 441 174 q 404 195 418 174 q 386 286 391 217 l 760 286 q 740 513 787 423 q 659 601 710 570 q 418 661 557 661 q 124 566 223 661 q 25 323 25 471 q 404 -14 25 -14 q 765 167 765 -14 q 760 212 765 190 l 475 239 q 479 215 479 226 q 441 174 479 174 "},"f":{"ha":585,"x_min":7,"x_max":587,"o":"m 464 755 q 513 734 490 755 l 587 848 q 357 939 492 939 q 152 882 223 939 q 81 724 81 825 q 90 647 81 680 l 7 647 l 7 510 l 90 510 l 90 0 l 452 0 l 452 510 l 554 510 l 554 647 l 437 647 q 416 705 416 675 q 464 755 418 755 "},"g":{"ha":821,"x_min":-21,"x_max":838,"o":"m 411 366 q 365 442 365 365 q 412 519 365 519 q 460 442 460 519 q 411 366 460 365 m 463 -25 q 530 -58 530 -25 q 409 -90 530 -90 q 288 -56 288 -90 q 342 -25 288 -25 l 463 -25 m 411 660 q 147 601 241 661 q 53 441 53 541 q 199 257 53 314 q 72 205 125 240 q 20 117 20 171 q 196 -21 20 -1 q 47 -50 115 -24 q -21 -122 -20 -76 q 393 -241 -20 -241 q 729 -190 621 -242 q 838 -27 838 -138 q 741 138 838 83 q 475 192 643 192 l 288 192 q 248 215 248 191 q 258 239 248 231 q 411 225 322 225 q 677 284 582 225 q 772 446 772 343 q 661 608 772 549 q 728 718 728 652 q 697 793 728 768 q 615 818 667 818 q 583 815 600 818 l 529 699 q 583 664 583 699 q 578 640 583 651 q 411 660 504 660 "},"h":{"ha":903,"x_min":49,"x_max":857,"o":"m 857 0 l 857 334 q 623 661 857 661 q 487 603 545 661 q 410 461 429 545 l 410 925 l 49 925 l 49 0 l 410 0 l 410 315 q 423 376 410 353 q 458 399 436 399 q 496 351 496 399 l 496 0 l 857 0 "},"i":{"ha":458,"x_min":49,"x_max":410,"o":"m 410 0 l 410 647 l 49 647 l 49 0 l 410 0 m 410 693 l 410 925 l 49 925 l 49 693 l 410 693 "},"j":{"ha":458,"x_min":-54,"x_max":410,"o":"m 410 693 l 410 925 l 49 925 l 49 693 l 410 693 m 49 647 l 49 -3 q 37 -52 48 -35 q -5 -68 25 -68 q -50 -64 -35 -68 l -54 -200 q 142 -241 37 -241 q 347 -179 283 -241 q 410 11 410 -117 l 410 647 l 49 647 "},"k":{"ha":911,"x_min":49,"x_max":907,"o":"m 410 0 l 410 132 l 450 192 l 538 0 l 907 0 l 685 379 l 893 647 l 557 647 l 410 439 l 410 925 l 49 925 l 49 0 l 410 0 "},"l":{"ha":458,"x_min":49,"x_max":410,"o":"m 410 0 l 410 925 l 49 925 l 49 0 l 410 0 "},"m":{"ha":1347,"x_min":49,"x_max":1301,"o":"m 856 0 l 856 302 q 869 372 856 346 q 904 399 882 399 q 940 351 940 399 l 940 0 l 1301 0 l 1301 334 q 1067 661 1301 661 q 844 460 909 661 q 621 661 805 661 q 468 606 529 661 q 379 461 407 551 l 325 647 l 49 647 l 49 0 l 410 0 l 410 302 q 458 399 410 399 q 494 351 494 399 l 494 0 l 856 0 "},"n":{"ha":903,"x_min":49,"x_max":857,"o":"m 857 0 l 857 334 q 623 661 857 661 q 469 606 530 661 q 379 461 407 551 l 325 647 l 49 647 l 49 0 l 410 0 l 410 302 q 458 399 410 399 q 496 351 496 399 l 496 0 l 857 0 "},"o":{"ha":858,"x_min":17,"x_max":842,"o":"m 481 323 q 468 214 480 240 q 429 187 456 187 q 390 214 401 187 q 378 323 378 240 q 391 433 378 407 q 429 460 403 460 q 468 433 456 460 q 481 323 480 407 m 729 570 q 429 661 616 661 q 129 570 241 661 q 17 323 17 479 q 129 77 16 168 q 429 -14 242 -14 q 729 77 616 -14 q 842 323 842 168 q 729 570 842 479 "},"p":{"ha":891,"x_min":49,"x_max":871,"o":"m 498 220 q 457 189 486 190 q 410 323 410 189 q 420 427 410 393 q 458 460 431 460 q 498 432 486 460 q 510 327 510 404 q 504 235 510 250 q 498 220 498 220 m 871 323 q 845 486 871 412 q 752 610 819 559 q 586 661 685 661 q 422 613 487 661 q 326 488 357 566 l 258 647 l 49 647 l 49 -228 l 410 -228 l 410 125 q 488 25 436 64 q 607 -14 539 -14 q 804 81 738 -14 q 871 323 871 175 "},"q":{"ha":891,"x_min":21,"x_max":843,"o":"m 382 323 q 393 429 382 399 q 432 460 404 460 q 471 429 460 460 q 481 324 481 397 q 471 220 481 251 q 431 189 460 189 q 382 323 382 189 m 87 81 q 289 -14 154 -14 q 482 125 424 -14 l 482 -228 l 843 -228 l 843 647 l 636 647 l 566 488 q 323 661 513 661 q 98 566 176 661 q 21 323 21 471 q 54 128 21 175 q 87 81 87 81 "},"r":{"ha":699,"x_min":49,"x_max":686,"o":"m 488 313 q 482 261 488 294 l 603 249 q 686 479 686 349 q 648 609 686 557 q 540 661 610 661 q 429 604 469 661 q 387 449 388 547 l 387 427 l 325 647 l 49 647 l 49 0 l 410 0 l 410 170 q 421 323 410 279 q 460 368 432 368 q 488 313 488 368 "},"s":{"ha":713,"x_min":22,"x_max":694,"o":"m 648 342 q 494 418 602 389 q 414 441 431 435 q 399 460 399 449 q 434 476 399 476 q 528 461 469 477 q 627 421 586 445 l 690 579 q 389 661 557 661 q 136 603 221 661 q 52 450 52 545 q 108 304 52 355 q 314 220 164 254 q 347 193 347 212 q 301 171 347 171 q 195 195 256 171 q 96 248 134 218 l 22 87 q 372 -14 179 -14 q 613 49 532 -14 q 694 203 694 111 q 671 318 694 294 q 648 342 648 342 "},"t":{"ha":589,"x_min":3,"x_max":564,"o":"m 79 239 q 142 49 79 111 q 345 -14 206 -14 q 564 33 483 -14 l 559 170 q 496 160 529 160 q 452 176 464 160 q 440 225 439 192 l 440 510 l 559 510 l 559 647 l 440 647 l 440 857 l 79 833 l 79 647 l 3 647 l 3 510 l 79 510 l 79 239 "},"u":{"ha":903,"x_min":46,"x_max":854,"o":"m 46 647 l 46 314 q 281 -14 46 -14 q 434 41 372 -14 q 524 186 496 96 l 578 0 l 854 0 l 854 647 l 493 647 l 493 345 q 444 249 493 249 q 407 296 407 248 l 407 647 l 46 647 "},"v":{"ha":826,"x_min":-7,"x_max":838,"o":"m 600 0 l 838 647 l 541 647 l 433 279 l 326 647 l -7 647 l 229 0 l 600 0 "},"w":{"ha":1230,"x_min":-7,"x_max":1242,"o":"m 536 0 l 624 278 l 713 0 l 1026 0 l 1242 647 l 914 647 l 857 292 l 772 647 l 484 647 l 392 292 l 328 647 l -7 647 l 208 0 l 536 0 "},"x":{"ha":830,"x_min":7,"x_max":823,"o":"m 340 647 l 14 647 l 195 326 l 7 0 l 340 0 l 415 171 l 490 0 l 823 0 l 636 326 l 817 647 l 490 647 l 415 463 l 340 647 "},"y":{"ha":814,"x_min":-7,"x_max":828,"o":"m 420 -228 q 504 -178 469 -213 q 561 -100 538 -142 q 608 14 583 -58 l 828 647 l 530 647 l 427 271 l 326 647 l -7 647 l 260 -22 q 174 -78 243 -78 q 114 -71 142 -77 l 109 -205 q 285 -241 197 -241 q 420 -228 373 -241 "},"z":{"ha":758,"x_min":41,"x_max":722,"o":"m 43 453 l 328 453 l 41 138 l 41 0 l 722 0 l 722 195 l 501 195 l 715 453 l 715 647 l 43 647 l 43 453 "},"{":{"ha":574,"x_min":49,"x_max":547,"o":"m 457 158 q 419 325 457 264 q 272 403 381 386 q 419 480 381 419 q 457 647 457 541 l 457 836 q 470 893 457 875 q 519 911 484 911 l 547 911 l 547 1019 l 368 1019 q 186 960 250 1019 q 123 787 123 900 l 123 492 q 82 450 123 450 l 49 450 l 49 355 l 82 355 q 123 314 123 355 l 123 18 q 186 -154 123 -94 q 368 -214 250 -214 l 547 -214 l 547 -106 l 519 -106 q 470 -87 483 -106 q 457 -31 457 -69 l 457 158 "},"|":{"ha":322,"x_min":77,"x_max":245,"o":"m 245 -228 l 245 1076 l 77 1076 l 77 -228 l 245 -228 "},"}":{"ha":574,"x_min":28,"x_max":526,"o":"m 118 -31 q 105 -87 118 -69 q 56 -106 92 -106 l 28 -106 l 28 -214 l 207 -214 q 388 -154 324 -214 q 452 18 452 -94 l 452 314 q 493 355 452 355 l 526 355 l 526 450 l 493 450 q 452 492 452 450 l 452 787 q 388 960 451 900 q 207 1019 325 1019 l 28 1019 l 28 911 l 56 911 q 105 893 92 911 q 118 836 118 875 l 118 647 q 156 481 118 542 q 302 403 194 420 q 156 325 194 386 q 118 158 118 264 l 118 -31 "},"~":{"ha":619,"x_min":31,"x_max":589,"o":"m 452 176 q 553 218 518 176 q 589 323 589 260 q 525 484 589 417 l 418 484 q 435 423 435 457 q 403 389 435 389 q 384 392 391 388 q 371 399 376 396 q 354 410 366 401 q 319 436 342 418 q 178 488 248 488 q 69 441 107 488 q 31 317 31 393 q 89 180 31 241 l 196 180 q 180 231 180 203 q 216 271 180 271 q 300 235 241 271 q 387 187 359 198 q 452 176 414 176 "}," ":{"ha":284,"x_min":0,"x_max":0,"o":""},"¡":{"ha":472,"x_min":56,"x_max":416,"o":"m 69 647 l 69 382 l 403 382 l 403 647 l 69 647 m 416 -228 l 416 -3 l 292 325 l 180 325 l 56 -3 l 56 -228 l 416 -228 "},"¢":{"ha":863,"x_min":62,"x_max":802,"o":"m 390 -28 l 529 -28 l 529 113 q 731 182 661 122 q 802 328 802 241 q 794 382 801 351 l 526 408 l 526 403 q 482 313 527 313 q 424 449 424 313 q 482 585 424 585 q 522 519 522 585 q 521 493 522 501 l 790 511 q 793 549 793 539 q 722 710 792 648 q 529 783 651 772 l 529 925 l 390 925 l 390 782 q 146 677 229 764 q 62 448 62 590 q 144 220 62 306 q 390 115 225 134 l 390 -28 "},"£":{"ha":1109,"x_min":7,"x_max":1084,"o":"m 164 155 q 182 191 163 178 q 236 204 202 204 q 338 168 270 204 q 236 106 308 106 q 164 155 164 106 m 656 717 q 717 655 716 717 q 697 603 717 627 l 868 493 q 976 567 934 517 q 1018 672 1018 617 q 906 848 1018 785 q 636 911 794 911 q 320 845 432 911 q 208 643 208 779 q 267 475 208 568 l 164 475 l 164 376 l 332 376 q 357 288 353 340 q 222 314 290 314 q 61 266 115 313 q 7 146 7 218 q 64 30 7 73 q 216 -14 122 -14 q 501 61 386 -14 q 776 -14 624 -14 q 1006 56 928 -14 q 1084 229 1085 126 q 1039 344 1085 302 q 913 386 993 386 l 896 386 l 782 231 q 827 164 827 204 q 807 125 827 140 q 755 110 787 110 q 606 154 693 109 q 686 351 686 235 q 685 376 686 368 l 793 376 l 793 475 l 659 475 q 648 493 652 486 q 591 633 591 590 q 656 717 591 718 "},"¤":{"ha":802,"x_min":74,"x_max":729,"o":"m 358 345 q 346 461 346 374 q 358 578 346 549 q 401 607 370 607 q 444 576 430 607 q 457 460 457 546 q 445 345 457 374 q 401 317 433 317 q 364 331 370 317 q 358 345 358 345 m 653 664 l 729 741 l 632 836 l 539 743 q 400 768 478 768 q 262 743 322 768 l 171 836 l 74 741 l 149 664 q 78 462 78 583 q 149 258 78 340 l 74 183 l 171 87 l 262 179 q 401 154 322 154 q 541 179 481 154 l 632 87 l 729 183 l 653 258 q 725 461 725 342 q 653 664 725 581 "},"¥":{"ha":981,"x_min":-4,"x_max":986,"o":"m 885 363 l 885 505 l 772 505 l 986 897 l 639 897 l 511 555 l 389 897 l -4 897 l 210 505 l 96 505 l 96 363 l 289 363 l 309 326 l 309 296 l 96 296 l 96 153 l 309 153 l 309 0 l 672 0 l 672 153 l 885 153 l 885 296 l 672 296 l 672 325 l 694 363 l 885 363 "},"¦":{"ha":322,"x_min":77,"x_max":245,"o":"m 245 1076 l 77 1076 l 77 511 l 245 511 l 245 1076 m 245 -228 l 245 338 l 77 338 l 77 -228 l 245 -228 "},"§":{"ha":913,"x_min":35,"x_max":865,"o":"m 370 421 l 524 380 q 578 357 563 369 q 593 324 593 345 q 579 286 593 304 q 479 308 543 294 q 382 336 415 321 q 349 374 349 351 q 370 421 349 396 m 854 396 q 784 558 854 503 q 538 653 713 613 q 422 685 446 674 q 399 715 399 696 q 457 743 399 743 q 778 665 610 743 l 851 843 q 673 915 776 888 q 465 942 570 942 q 72 690 72 942 q 106 564 73 616 q 218 475 140 513 q 107 421 155 466 q 60 313 60 376 q 130 154 60 215 q 370 58 200 93 q 505 25 469 39 q 539 -7 540 12 q 464 -40 539 -40 q 118 43 292 -41 l 35 -121 q 239 -209 115 -176 q 661 -217 477 -271 q 788 -151 746 -193 q 865 35 865 -73 q 746 225 865 160 q 827 298 799 251 q 854 396 854 346 "},"¨":{"ha":652,"x_min":49,"x_max":604,"o":"m 290 720 l 290 925 l 49 925 l 49 720 l 290 720 m 604 720 l 604 925 l 357 925 l 357 720 l 604 720 "},"©":{"ha":1030,"x_min":35,"x_max":996,"o":"m 541 567 q 587 547 569 567 q 604 493 604 526 l 736 519 q 675 647 733 598 q 526 696 618 696 q 349 625 410 696 q 289 461 289 553 q 345 300 289 369 q 510 231 401 231 q 674 277 620 231 q 739 401 728 323 l 614 435 q 543 359 603 359 q 467 463 467 359 q 541 567 467 567 m 777 191 q 515 85 669 85 q 254 191 361 85 q 146 463 146 297 q 254 734 146 628 q 515 840 361 840 q 777 734 669 840 q 885 463 885 628 q 831 244 885 297 q 777 191 777 191 m 860 802 q 515 942 724 942 q 171 802 307 942 q 35 463 35 663 q 171 123 35 262 q 515 -17 307 -17 q 860 123 724 -17 q 996 463 996 262 q 928 732 996 663 q 860 802 860 802 "},"ª":{"ha":493,"x_min":39,"x_max":468,"o":"m 249 701 q 227 675 249 675 q 208 693 208 675 q 249 721 209 715 l 249 701 m 468 627 l 468 686 q 449 681 458 681 q 433 703 433 680 l 433 806 q 388 909 433 876 q 246 942 342 941 q 99 913 150 942 q 49 833 49 884 q 64 779 48 807 l 224 812 q 218 838 218 822 q 233 854 218 854 q 249 835 249 854 l 249 772 q 191 775 210 775 q 39 688 39 775 q 66 623 39 648 q 138 597 93 597 q 269 661 235 597 q 362 597 292 597 q 468 627 433 597 "},"«":{"ha":1055,"x_min":49,"x_max":986,"o":"m 986 408 l 986 618 l 542 416 l 542 231 l 986 29 l 986 239 l 765 323 l 986 408 m 493 408 l 493 618 l 49 416 l 49 231 l 493 29 l 493 239 l 272 323 l 493 408 "},"¬":{"ha":769,"x_min":56,"x_max":703,"o":"m 703 83 l 703 511 l 56 511 l 56 302 l 464 302 l 464 83 l 703 83 "},"®":{"ha":565,"x_min":35,"x_max":530,"o":"m 289 710 l 262 710 l 262 741 l 290 741 q 311 725 311 741 q 289 710 311 709 m 386 743 q 300 793 386 793 l 187 793 l 187 608 l 262 608 l 262 679 l 279 679 q 290 673 289 679 q 298 643 290 668 q 315 608 307 618 l 395 608 q 376 655 386 618 q 334 692 367 692 l 325 692 q 386 743 386 702 m 159 821 q 283 872 208 872 q 408 821 359 872 q 456 699 456 770 q 408 576 456 627 q 283 525 361 525 q 159 576 208 525 q 110 699 110 627 q 134 796 110 770 q 159 821 159 821 m 35 699 q 102 528 34 600 q 283 456 170 456 q 464 528 397 456 q 530 699 530 600 q 464 869 530 798 q 283 941 397 941 q 102 869 170 941 q 35 699 34 798 "},"¯":{"ha":634,"x_min":49,"x_max":586,"o":"m 586 726 l 586 904 l 49 904 l 49 726 l 586 726 "},"°":{"ha":425,"x_min":41,"x_max":383,"o":"m 257 728 q 213 709 239 709 q 168 728 187 709 q 150 779 150 747 q 168 829 151 810 q 212 848 186 848 q 257 829 239 848 q 275 779 275 810 q 266 738 275 747 q 257 728 257 728 m 332 895 q 212 942 281 942 q 92 895 142 942 q 41 779 41 848 q 92 663 41 710 q 212 616 142 616 q 332 663 281 616 q 383 779 383 710 q 358 872 383 848 q 332 895 332 895 "},"±":{"ha":758,"x_min":56,"x_max":703,"o":"m 56 0 l 703 0 l 703 183 l 498 183 l 498 302 l 703 302 l 703 497 l 498 497 l 498 689 l 260 689 l 260 497 l 56 497 l 56 302 l 260 302 l 260 183 l 56 183 l 56 0 "},"²":{"ha":430,"x_min":49,"x_max":382,"o":"m 382 250 l 382 543 l 49 543 l 49 250 l 382 250 "},"³":{"ha":430,"x_min":49,"x_max":382,"o":"m 382 250 l 382 543 l 49 543 l 49 250 l 382 250 "},"´":{"ha":441,"x_min":49,"x_max":407,"o":"m 407 925 l 117 925 l 49 715 l 265 715 l 407 925 "},"µ":{"ha":903,"x_min":46,"x_max":854,"o":"m 46 -228 l 407 -228 l 407 21 q 524 186 488 73 l 578 0 l 854 0 l 854 647 l 493 647 l 493 345 q 444 249 493 249 q 407 296 407 248 l 407 647 l 46 647 l 46 -228 "},"¶":{"ha":1008,"x_min":28,"x_max":946,"o":"m 445 688 q 549 728 488 728 l 549 439 q 448 479 492 439 q 403 583 403 518 q 445 688 403 647 m 789 0 l 946 0 l 946 925 l 554 925 q 357 905 450 925 q 71 736 152 859 q 28 582 28 669 q 174 349 28 432 q 549 267 321 267 l 549 0 l 705 0 l 705 728 l 789 728 l 789 0 "},"·":{"ha":430,"x_min":49,"x_max":382,"o":"m 382 250 l 382 543 l 49 543 l 49 250 l 382 250 "},"¸":{"ha":447,"x_min":56,"x_max":406,"o":"m 406 -136 q 375 -73 406 -96 q 288 -50 345 -50 q 191 -89 231 -50 l 233 4 l 155 4 l 98 -117 q 150 -114 114 -114 q 186 -140 186 -114 q 148 -165 186 -165 q 74 -150 110 -165 l 56 -204 q 231 -241 117 -241 q 406 -136 406 -242 "},"¹":{"ha":430,"x_min":49,"x_max":382,"o":"m 382 250 l 382 543 l 49 543 l 49 250 l 382 250 "},"º":{"ha":462,"x_min":21,"x_max":441,"o":"m 252 714 q 231 700 244 700 q 203 770 203 701 q 231 839 203 839 q 252 825 245 838 q 258 770 258 811 q 252 714 258 728 m 384 895 q 231 942 326 941 q 78 895 135 941 q 21 770 21 849 q 78 644 21 690 q 231 597 135 597 q 384 644 326 597 q 441 770 441 690 q 413 872 441 849 q 384 895 384 895 "},"»":{"ha":1055,"x_min":69,"x_max":1007,"o":"m 290 323 l 69 239 l 69 29 l 514 231 l 514 416 l 69 618 l 69 408 l 290 323 m 783 323 l 562 239 l 562 29 l 1007 231 l 1007 416 l 562 618 l 562 408 l 783 323 "},"¼":{"ha":430,"x_min":49,"x_max":382,"o":"m 382 250 l 382 543 l 49 543 l 49 250 l 382 250 "},"½":{"ha":430,"x_min":49,"x_max":382,"o":"m 382 250 l 382 543 l 49 543 l 49 250 l 382 250 "},"¾":{"ha":430,"x_min":49,"x_max":382,"o":"m 382 250 l 382 543 l 49 543 l 49 250 l 382 250 "},"¿":{"ha":865,"x_min":28,"x_max":829,"o":"m 262 647 l 262 382 l 596 382 l 596 647 l 262 647 m 722 -178 q 829 -5 829 -115 q 785 143 829 75 l 492 96 q 498 53 498 71 q 443 -8 498 -8 q 387 64 387 -9 q 418 123 387 97 q 510 172 449 149 l 454 336 q 139 242 250 322 q 28 34 28 161 q 132 -168 27 -94 q 425 -241 236 -241 q 722 -178 613 -241 "},"À":{"ha":1137,"x_min":14,"x_max":1131,"o":"m 436 986 l 671 986 l 611 1158 l 318 1158 l 436 986 m 528 647 l 631 326 l 425 326 l 528 647 m 787 925 l 355 925 l 14 0 l 321 0 l 361 129 l 693 129 l 734 0 l 1131 0 l 787 925 "},"Á":{"ha":1137,"x_min":14,"x_max":1131,"o":"m 807 1158 l 493 1158 l 436 986 l 671 986 l 807 1158 m 528 647 l 631 326 l 425 326 l 528 647 m 787 925 l 355 925 l 14 0 l 321 0 l 361 129 l 693 129 l 734 0 l 1131 0 l 787 925 "},"Â":{"ha":1137,"x_min":14,"x_max":1131,"o":"m 743 1149 l 400 1149 l 300 986 l 538 986 l 572 1078 l 608 986 l 846 986 l 743 1149 m 528 647 l 631 326 l 425 326 l 528 647 m 787 925 l 355 925 l 14 0 l 321 0 l 361 129 l 693 129 l 734 0 l 1131 0 l 787 925 "},"Ã":{"ha":1137,"x_min":14,"x_max":1131,"o":"m 814 1092 q 746 1214 814 1169 l 669 1178 q 682 1153 682 1167 q 659 1131 682 1131 q 560 1160 636 1131 q 429 1190 484 1190 q 341 1160 375 1190 q 307 1084 307 1129 q 380 962 307 1015 l 441 1000 q 433 1019 433 1011 q 457 1035 434 1035 q 564 1006 480 1035 q 697 977 648 977 q 780 1010 746 977 q 814 1092 814 1043 m 528 647 l 631 326 l 425 326 l 528 647 m 787 925 l 355 925 l 14 0 l 321 0 l 361 129 l 693 129 l 734 0 l 1131 0 l 787 925 "},"Ä":{"ha":1137,"x_min":14,"x_max":1131,"o":"m 526 993 l 526 1173 l 265 1173 l 265 993 l 526 993 m 863 993 l 863 1173 l 596 1173 l 596 993 l 863 993 m 528 647 l 631 326 l 425 326 l 528 647 m 787 925 l 355 925 l 14 0 l 321 0 l 361 129 l 693 129 l 734 0 l 1131 0 l 787 925 "},"Å":{"ha":1137,"x_min":14,"x_max":1131,"o":"m 611 1028 q 568 979 612 979 q 525 1028 525 979 q 568 1076 525 1077 q 611 1028 611 1077 m 528 647 l 631 326 l 425 326 l 528 647 m 701 1133 q 568 1172 646 1172 q 435 1132 492 1172 q 379 1029 379 1092 q 436 925 379 967 l 355 925 l 14 0 l 321 0 l 361 129 l 693 129 l 734 0 l 1131 0 l 787 925 l 700 925 q 757 1030 757 968 q 701 1133 757 1092 "},"Æ":{"ha":1483,"x_min":14,"x_max":1435,"o":"m 528 647 l 631 326 l 425 326 l 528 647 m 1426 925 l 355 925 l 14 0 l 321 0 l 361 129 l 693 129 l 734 0 l 1435 0 l 1435 249 l 1038 249 l 990 376 l 1335 376 l 1335 557 l 924 557 l 879 676 l 1426 676 l 1426 925 "},"Ç":{"ha":1019,"x_min":28,"x_max":991,"o":"m 751 -136 q 721 -73 751 -96 q 633 -50 690 -50 q 536 -89 576 -50 l 570 -16 q 871 94 758 -7 q 991 335 983 194 l 718 404 q 570 250 694 250 q 419 463 419 250 q 454 615 420 555 q 559 675 490 675 q 663 633 628 674 q 697 524 697 593 l 972 572 q 852 849 962 757 q 551 942 742 941 q 164 804 300 942 q 28 461 28 667 q 143 126 28 255 q 492 -16 258 -3 l 444 -117 q 496 -114 460 -114 q 532 -140 532 -114 q 494 -165 532 -165 q 419 -150 456 -165 l 401 -204 q 576 -241 463 -241 q 751 -136 751 -242 "},"È":{"ha":913,"x_min":56,"x_max":865,"o":"m 350 986 l 585 986 l 525 1158 l 232 1158 l 350 986 m 865 0 l 865 253 l 431 253 l 431 364 l 765 364 l 765 572 l 431 572 l 431 672 l 857 672 l 857 925 l 56 925 l 56 0 l 865 0 "},"É":{"ha":913,"x_min":56,"x_max":865,"o":"m 694 1158 l 380 1158 l 323 986 l 558 986 l 694 1158 m 865 0 l 865 253 l 431 253 l 431 364 l 765 364 l 765 572 l 431 572 l 431 672 l 857 672 l 857 925 l 56 925 l 56 0 l 865 0 "},"Ê":{"ha":913,"x_min":56,"x_max":865,"o":"m 632 1149 l 289 1149 l 189 986 l 427 986 l 461 1078 l 497 986 l 734 986 l 632 1149 m 865 0 l 865 253 l 431 253 l 431 364 l 765 364 l 765 572 l 431 572 l 431 672 l 857 672 l 857 925 l 56 925 l 56 0 l 865 0 "},"Ë":{"ha":913,"x_min":56,"x_max":865,"o":"m 415 993 l 415 1173 l 154 1173 l 154 993 l 415 993 m 751 993 l 751 1173 l 485 1173 l 485 993 l 751 993 m 865 0 l 865 253 l 431 253 l 431 364 l 765 364 l 765 572 l 431 572 l 431 672 l 857 672 l 857 925 l 56 925 l 56 0 l 865 0 "},"Ì":{"ha":500,"x_min":21,"x_max":437,"o":"m 139 986 l 374 986 l 314 1158 l 21 1158 l 139 986 m 437 0 l 437 925 l 62 925 l 62 0 l 437 0 "},"Í":{"ha":500,"x_min":62,"x_max":501,"o":"m 501 1158 l 187 1158 l 131 986 l 366 986 l 501 1158 m 437 0 l 437 925 l 62 925 l 62 0 l 437 0 "},"Î":{"ha":500,"x_min":-22,"x_max":524,"o":"m 421 1149 l 78 1149 l -22 986 l 215 986 l 250 1078 l 286 986 l 524 986 l 421 1149 m 437 0 l 437 925 l 62 925 l 62 0 l 437 0 "},"Ï":{"ha":500,"x_min":-49,"x_max":549,"o":"m 212 993 l 212 1173 l -49 1173 l -49 993 l 212 993 m 549 993 l 549 1173 l 282 1173 l 282 993 l 549 993 m 437 0 l 437 925 l 62 925 l 62 0 l 437 0 "},"Ð":{"ha":1126,"x_min":41,"x_max":1107,"o":"m 732 463 q 692 308 732 372 q 566 244 652 244 l 490 244 l 490 400 l 611 400 l 611 526 l 490 526 l 490 681 l 566 681 q 692 617 652 680 q 732 463 732 554 m 41 400 l 115 400 l 115 0 l 607 0 q 975 129 843 0 q 1107 463 1107 258 q 975 796 1107 667 q 607 925 843 925 l 115 925 l 115 526 l 41 526 l 41 400 "},"Ñ":{"ha":1119,"x_min":56,"x_max":1064,"o":"m 807 1092 q 739 1214 807 1169 l 663 1178 q 675 1153 675 1167 q 651 1131 674 1131 q 553 1160 628 1131 q 423 1190 479 1190 q 334 1160 368 1190 q 300 1084 300 1129 q 374 962 300 1015 l 435 1000 q 427 1019 427 1011 q 450 1035 426 1035 q 557 1006 473 1035 q 690 977 640 977 q 773 1010 739 977 q 807 1092 807 1043 m 389 0 l 389 416 l 701 0 l 1064 0 l 1064 925 l 730 925 l 730 507 l 418 925 l 56 925 l 56 0 l 389 0 "},"Ò":{"ha":1122,"x_min":25,"x_max":1097,"o":"m 436 986 l 671 986 l 611 1158 l 318 1158 l 436 986 m 673 310 q 562 250 639 250 q 449 310 484 250 q 414 463 414 370 q 449 615 415 555 q 561 675 483 675 q 673 615 639 675 q 708 463 708 555 q 691 340 708 370 q 673 310 673 310 m 956 803 q 562 942 814 942 q 167 803 309 942 q 25 463 25 664 q 167 122 26 261 q 561 -17 308 -17 q 956 122 814 -17 q 1097 463 1097 261 q 1026 733 1097 664 q 956 803 956 803 "},"Ó":{"ha":1122,"x_min":25,"x_max":1097,"o":"m 806 1158 l 492 1158 l 435 986 l 669 986 l 806 1158 m 673 310 q 562 250 639 250 q 449 310 484 250 q 414 463 414 370 q 449 615 415 555 q 561 675 483 675 q 673 615 639 675 q 708 463 708 555 q 691 340 708 370 q 673 310 673 310 m 956 803 q 562 942 814 942 q 167 803 309 942 q 25 463 25 664 q 167 122 26 261 q 561 -17 308 -17 q 956 122 814 -17 q 1097 463 1097 261 q 1026 733 1097 664 q 956 803 956 803 "},"Ô":{"ha":1122,"x_min":25,"x_max":1097,"o":"m 732 1149 l 389 1149 l 289 986 l 526 986 l 561 1078 l 597 986 l 835 986 l 732 1149 m 673 310 q 562 250 639 250 q 449 310 484 250 q 414 463 414 370 q 449 615 415 555 q 561 675 483 675 q 673 615 639 675 q 708 463 708 555 q 691 340 708 370 q 673 310 673 310 m 956 803 q 562 942 814 942 q 167 803 309 942 q 25 463 25 664 q 167 122 26 261 q 561 -17 308 -17 q 956 122 814 -17 q 1097 463 1097 261 q 1026 733 1097 664 q 956 803 956 803 "},"Õ":{"ha":1122,"x_min":25,"x_max":1097,"o":"m 768 1010 q 802 1092 802 1043 q 733 1214 801 1169 l 657 1178 q 669 1153 669 1167 q 646 1131 669 1131 q 548 1160 623 1131 q 418 1190 473 1190 q 328 1160 362 1190 q 294 1084 294 1129 q 368 962 294 1015 l 429 1000 q 421 1019 421 1011 q 444 1035 420 1035 q 551 1006 468 1035 q 684 977 635 977 q 751 993 734 977 q 768 1010 768 1010 m 673 310 q 562 250 639 250 q 449 310 484 250 q 414 463 414 370 q 449 615 415 555 q 561 675 483 675 q 673 615 639 675 q 708 463 708 555 q 691 340 708 370 q 673 310 673 310 m 956 803 q 562 942 814 942 q 167 803 309 942 q 25 463 25 664 q 167 122 26 261 q 561 -17 308 -17 q 956 122 814 -17 q 1097 463 1097 261 q 1026 733 1097 664 q 956 803 956 803 "},"Ö":{"ha":1122,"x_min":25,"x_max":1097,"o":"m 524 993 l 524 1173 l 262 1173 l 262 993 l 524 993 m 860 993 l 860 1173 l 593 1173 l 593 993 l 860 993 m 673 310 q 562 250 639 250 q 449 310 484 250 q 414 463 414 370 q 449 615 415 555 q 561 675 483 675 q 673 615 639 675 q 708 463 708 555 q 691 340 708 370 q 673 310 673 310 m 956 803 q 562 942 814 942 q 167 803 309 942 q 25 463 25 664 q 167 122 26 261 q 561 -17 308 -17 q 956 122 814 -17 q 1097 463 1097 261 q 1026 733 1097 664 q 956 803 956 803 "},"×":{"ha":688,"x_min":41,"x_max":647,"o":"m 189 5 l 345 161 l 500 5 l 647 153 l 492 309 l 647 464 l 500 611 l 345 456 l 189 611 l 41 464 l 197 309 l 41 153 l 189 5 "},"Ø":{"ha":1122,"x_min":25,"x_max":1097,"o":"m 708 463 q 673 310 708 370 q 561 250 639 250 q 447 313 483 250 l 701 536 q 708 463 708 497 m 414 463 q 448 615 414 555 q 559 675 483 675 q 675 612 636 675 l 421 387 q 414 463 414 427 m 144 144 l 25 39 l 75 -17 l 200 93 q 561 -17 341 -17 q 956 122 814 -17 q 1097 456 1097 262 q 978 781 1097 650 l 1097 886 l 1048 942 l 922 831 q 561 942 779 942 q 167 803 309 942 q 25 469 25 663 q 144 144 25 275 "},"Ù":{"ha":1033,"x_min":49,"x_max":985,"o":"m 412 986 l 647 986 l 587 1158 l 294 1158 l 412 986 m 985 372 l 985 925 l 640 925 l 640 368 q 616 281 640 311 q 532 250 591 250 q 448 281 472 250 q 424 368 423 311 l 424 925 l 49 925 l 49 372 q 112 151 49 243 q 534 -17 227 -17 q 847 64 734 -17 q 985 372 985 162 "},"Ú":{"ha":1033,"x_min":49,"x_max":985,"o":"m 774 1158 l 460 1158 l 403 986 l 637 986 l 774 1158 m 985 372 l 985 925 l 640 925 l 640 368 q 616 281 640 311 q 532 250 591 250 q 448 281 472 250 q 424 368 423 311 l 424 925 l 49 925 l 49 372 q 112 151 49 243 q 534 -17 227 -17 q 847 64 734 -17 q 985 372 985 162 "},"Û":{"ha":1033,"x_min":49,"x_max":985,"o":"m 705 1149 l 363 1149 l 262 986 l 500 986 l 534 1078 l 571 986 l 808 986 l 705 1149 m 985 372 l 985 925 l 640 925 l 640 368 q 616 281 640 311 q 532 250 591 250 q 448 281 472 250 q 424 368 423 311 l 424 925 l 49 925 l 49 372 q 112 151 49 243 q 534 -17 227 -17 q 847 64 734 -17 q 985 372 985 162 "},"Ü":{"ha":1033,"x_min":49,"x_max":985,"o":"m 496 993 l 496 1173 l 235 1173 l 235 993 l 496 993 m 832 993 l 832 1173 l 566 1173 l 566 993 l 832 993 m 985 372 l 985 925 l 640 925 l 640 368 q 616 281 640 311 q 532 250 591 250 q 448 281 472 250 q 424 368 423 311 l 424 925 l 49 925 l 49 372 q 112 151 49 243 q 534 -17 227 -17 q 847 64 734 -17 q 985 372 985 162 "},"Ý":{"ha":1030,"x_min":7,"x_max":1023,"o":"m 782 1158 l 468 1158 l 411 986 l 646 986 l 782 1158 m 701 0 l 701 325 l 1023 925 l 676 925 l 536 623 l 400 925 l 7 925 l 326 326 l 326 0 l 701 0 "},"Þ":{"ha":1025,"x_min":56,"x_max":1018,"o":"m 538 334 l 431 334 l 431 510 l 538 510 q 614 486 585 510 q 643 425 643 463 q 617 360 643 387 q 538 334 591 334 m 589 772 l 431 772 l 431 925 l 56 925 l 56 0 l 431 0 l 431 170 l 600 170 q 916 248 812 170 q 1018 465 1019 327 q 911 688 1018 603 q 589 772 805 772 "},"ß":{"ha":1065,"x_min":41,"x_max":1051,"o":"m 41 589 l 41 0 l 403 0 l 403 648 q 496 755 403 755 q 589 670 589 755 q 533 553 589 629 q 478 424 477 477 q 521 304 478 345 q 671 220 564 264 q 704 192 704 205 q 647 171 704 171 q 503 207 590 171 l 454 50 q 726 -14 564 -14 q 970 52 888 -14 q 1051 220 1051 118 q 926 396 1051 345 q 850 437 867 420 q 833 481 834 454 q 844 523 833 507 q 863 553 854 540 q 876 572 872 567 q 922 694 922 640 q 481 939 922 939 q 41 589 41 939 "},"à":{"ha":890,"x_min":32,"x_max":873,"o":"m 325 715 l 542 715 l 473 925 l 183 925 l 325 715 m 444 187 q 404 139 444 138 q 366 175 366 139 q 444 229 365 220 l 444 187 m 221 -14 q 380 17 311 -14 q 484 111 449 47 q 556 20 504 53 q 669 -14 608 -14 q 787 0 729 -15 q 873 43 846 15 l 873 160 q 833 150 858 151 q 804 193 804 151 l 804 395 q 712 597 804 534 q 435 661 620 661 q 152 603 251 661 q 53 449 53 545 q 82 342 53 397 l 395 408 q 385 452 385 433 q 414 489 385 489 q 443 452 443 489 l 443 328 q 323 335 374 335 q 32 164 32 335 q 82 34 32 81 q 221 -14 132 -14 "},"á":{"ha":890,"x_min":32,"x_max":873,"o":"m 675 925 l 385 925 l 317 715 l 533 715 l 675 925 m 444 187 q 404 139 444 138 q 366 175 366 139 q 444 229 365 220 l 444 187 m 221 -14 q 380 17 311 -14 q 484 111 449 47 q 556 20 504 53 q 669 -14 608 -14 q 787 0 729 -15 q 873 43 846 15 l 873 160 q 833 150 858 151 q 804 193 804 151 l 804 395 q 712 597 804 534 q 435 661 620 661 q 152 603 251 661 q 53 449 53 545 q 82 342 53 397 l 395 408 q 385 452 385 433 q 414 489 385 489 q 443 452 443 489 l 443 328 q 323 335 374 335 q 32 164 32 335 q 82 34 32 81 q 221 -14 132 -14 "},"â":{"ha":890,"x_min":32,"x_max":873,"o":"m 597 925 l 282 925 l 182 707 l 406 707 l 440 832 l 476 707 l 700 707 l 597 925 m 444 187 q 404 139 444 138 q 366 175 366 139 q 444 229 365 220 l 444 187 m 221 -14 q 380 17 311 -14 q 484 111 449 47 q 556 20 504 53 q 669 -14 608 -14 q 787 0 729 -15 q 873 43 846 15 l 873 160 q 833 150 858 151 q 804 193 804 151 l 804 395 q 712 597 804 534 q 435 661 620 661 q 152 603 251 661 q 53 449 53 545 q 82 342 53 397 l 395 408 q 385 452 385 433 q 414 489 385 489 q 443 452 443 489 l 443 328 q 323 335 374 335 q 32 164 32 335 q 82 34 32 81 q 221 -14 132 -14 "},"ã":{"ha":890,"x_min":32,"x_max":873,"o":"m 675 835 q 608 960 675 917 l 529 926 q 543 899 543 914 q 520 876 543 876 q 429 906 497 876 q 305 936 361 936 q 216 901 250 936 q 182 812 182 867 q 250 688 182 735 l 325 714 q 311 746 311 730 q 338 771 312 771 q 437 742 363 771 q 546 713 510 713 q 642 748 608 713 q 675 835 675 783 m 444 187 q 404 139 444 138 q 366 175 366 139 q 444 229 365 220 l 444 187 m 221 -14 q 380 17 311 -14 q 484 111 449 47 q 556 20 504 53 q 669 -14 608 -14 q 787 0 729 -15 q 873 43 846 15 l 873 160 q 833 150 858 151 q 804 193 804 151 l 804 395 q 712 597 804 534 q 435 661 620 661 q 152 603 251 661 q 53 449 53 545 q 82 342 53 397 l 395 408 q 385 452 385 433 q 414 489 385 489 q 443 452 443 489 l 443 328 q 323 335 374 335 q 32 164 32 335 q 82 34 32 81 q 221 -14 132 -14 "},"ä":{"ha":890,"x_min":32,"x_max":873,"o":"m 401 720 l 401 925 l 160 925 l 160 720 l 401 720 m 715 720 l 715 925 l 468 925 l 468 720 l 715 720 m 444 187 q 404 139 444 138 q 366 175 366 139 q 444 229 365 220 l 444 187 m 221 -14 q 380 17 311 -14 q 484 111 449 47 q 556 20 504 53 q 669 -14 608 -14 q 787 0 729 -15 q 873 43 846 15 l 873 160 q 833 150 858 151 q 804 193 804 151 l 804 395 q 712 597 804 534 q 435 661 620 661 q 152 603 251 661 q 53 449 53 545 q 82 342 53 397 l 395 408 q 385 452 385 433 q 414 489 385 489 q 443 452 443 489 l 443 328 q 323 335 374 335 q 32 164 32 335 q 82 34 32 81 q 221 -14 132 -14 "},"å":{"ha":890,"x_min":32,"x_max":873,"o":"m 462 799 q 432 787 450 787 q 401 799 414 787 q 391 831 391 811 q 402 863 391 850 q 432 875 414 875 q 462 863 450 875 q 473 831 473 850 q 468 805 473 811 q 462 799 462 799 m 614 831 q 560 928 613 892 q 432 964 507 964 q 303 928 357 964 q 250 830 250 891 q 303 733 250 769 q 431 697 357 697 q 560 734 506 697 q 614 831 614 770 m 444 187 q 404 139 444 138 q 366 175 366 139 q 444 229 365 220 l 444 187 m 221 -14 q 380 17 311 -14 q 484 111 449 47 q 556 20 504 53 q 669 -14 608 -14 q 787 0 729 -15 q 873 43 846 15 l 873 160 q 833 150 858 151 q 804 193 804 151 l 804 395 q 712 597 804 534 q 435 661 620 661 q 152 603 251 661 q 53 449 53 545 q 82 342 53 397 l 395 408 q 385 452 385 433 q 414 489 385 489 q 443 452 443 489 l 443 328 q 323 335 374 335 q 32 164 32 335 q 82 34 32 81 q 221 -14 132 -14 "},"æ":{"ha":1217,"x_min":32,"x_max":1187,"o":"m 366 175 q 452 231 366 220 q 463 187 453 210 q 406 138 447 138 q 366 175 366 138 m 848 489 q 889 414 888 489 q 886 378 889 406 l 804 378 l 804 385 q 848 489 804 489 m 860 174 q 822 195 836 174 q 804 286 808 217 l 1178 286 q 1187 397 1187 335 q 1158 514 1187 458 q 1076 601 1128 570 q 836 661 975 661 q 593 570 663 661 q 386 661 530 661 q 136 607 217 661 q 54 461 54 553 q 82 342 54 406 l 395 408 q 386 449 386 431 q 422 489 387 489 q 458 444 458 489 q 450 395 458 426 q 443 323 442 363 q 317 330 371 330 q 32 164 32 331 q 82 34 32 81 q 220 -14 132 -14 q 377 8 308 -14 q 514 93 446 31 q 640 14 558 41 q 822 -14 722 -14 q 1183 164 1183 -14 q 1178 212 1183 190 l 893 239 q 897 215 897 227 q 860 174 897 174 "},"ç":{"ha":770,"x_min":20,"x_max":745,"o":"m 621 -138 q 590 -75 620 -98 q 503 -52 560 -52 q 406 -90 446 -52 l 440 -14 q 665 52 586 -8 q 745 203 745 111 q 737 257 744 229 l 469 283 l 469 277 q 429 187 469 187 q 380 323 380 187 q 429 460 380 460 q 465 400 465 460 q 464 368 465 379 l 732 386 q 736 425 736 406 q 650 598 736 535 q 418 661 564 661 q 119 573 218 661 q 20 323 20 485 q 364 -12 20 10 l 314 -118 q 365 -115 328 -115 q 401 -140 401 -115 q 363 -167 401 -167 q 289 -151 325 -167 l 271 -205 q 446 -243 332 -243 q 621 -138 621 -243 "},"è":{"ha":800,"x_min":25,"x_max":765,"o":"m 304 715 l 521 715 l 453 925 l 163 925 l 304 715 m 471 414 q 468 378 471 406 l 386 378 q 430 489 389 489 q 471 414 471 489 m 441 174 q 404 195 418 174 q 386 286 391 217 l 760 286 q 740 513 787 423 q 659 601 710 570 q 418 661 557 661 q 124 566 223 661 q 25 323 25 471 q 404 -14 25 -14 q 765 167 765 -14 q 760 212 765 190 l 475 239 q 479 215 479 226 q 441 174 479 174 "},"é":{"ha":800,"x_min":25,"x_max":765,"o":"m 650 925 l 359 925 l 292 715 l 509 715 l 650 925 m 471 414 q 468 378 471 406 l 386 378 q 430 489 389 489 q 471 414 471 489 m 441 174 q 404 195 418 174 q 386 286 391 217 l 760 286 q 740 513 787 423 q 659 601 710 570 q 418 661 557 661 q 124 566 223 661 q 25 323 25 471 q 404 -14 25 -14 q 765 167 765 -14 q 760 212 765 190 l 475 239 q 479 215 479 226 q 441 174 479 174 "},"ê":{"ha":800,"x_min":25,"x_max":765,"o":"m 581 925 l 265 925 l 165 707 l 389 707 l 424 832 l 460 707 l 684 707 l 581 925 m 471 414 q 468 378 471 406 l 386 378 q 430 489 389 489 q 471 414 471 489 m 441 174 q 404 195 418 174 q 386 286 391 217 l 760 286 q 740 513 787 423 q 659 601 710 570 q 418 661 557 661 q 124 566 223 661 q 25 323 25 471 q 404 -14 25 -14 q 765 167 765 -14 q 760 212 765 190 l 475 239 q 479 215 479 226 q 441 174 479 174 "},"ë":{"ha":800,"x_min":25,"x_max":765,"o":"m 376 720 l 376 925 l 135 925 l 135 720 l 376 720 m 690 720 l 690 925 l 443 925 l 443 720 l 690 720 m 471 414 q 468 378 471 406 l 386 378 q 430 489 389 489 q 471 414 471 489 m 441 174 q 404 195 418 174 q 386 286 391 217 l 760 286 q 740 513 787 423 q 659 601 710 570 q 418 661 557 661 q 124 566 223 661 q 25 323 25 471 q 404 -14 25 -14 q 765 167 765 -14 q 760 212 765 190 l 475 239 q 479 215 479 226 q 441 174 479 174 "},"ì":{"ha":458,"x_min":-20,"x_max":410,"o":"m 122 715 l 339 715 l 271 925 l -20 925 l 122 715 m 410 0 l 410 647 l 49 647 l 49 0 l 410 0 "},"í":{"ha":458,"x_min":49,"x_max":481,"o":"m 481 925 l 191 925 l 122 715 l 339 715 l 481 925 m 410 0 l 410 647 l 49 647 l 49 0 l 410 0 "},"î":{"ha":458,"x_min":-29,"x_max":489,"o":"m 386 925 l 71 925 l -29 707 l 195 707 l 229 832 l 265 707 l 489 707 l 386 925 m 410 0 l 410 647 l 49 647 l 49 0 l 410 0 "},"ï":{"ha":458,"x_min":-49,"x_max":507,"o":"m 193 720 l 193 925 l -49 925 l -49 720 l 193 720 m 507 720 l 507 925 l 260 925 l 260 720 l 507 720 m 410 0 l 410 647 l 49 647 l 49 0 l 410 0 "},"ð":{"ha":897,"x_min":35,"x_max":861,"o":"m 496 268 q 481 200 496 227 q 437 174 467 174 q 382 267 382 174 q 439 361 382 361 q 496 268 496 361 m 861 390 q 690 799 861 632 l 779 839 l 741 920 l 612 861 q 488 925 562 897 l 74 925 q 354 743 244 867 l 211 677 l 250 599 l 410 671 q 498 371 494 535 q 425 502 479 454 q 298 550 370 550 q 103 471 171 551 q 35 283 35 391 q 138 71 35 155 q 422 -14 242 -14 q 754 94 647 -14 q 861 390 861 203 "},"ñ":{"ha":903,"x_min":49,"x_max":857,"o":"m 693 835 q 627 960 693 917 l 547 926 q 561 899 561 914 q 534 876 561 876 q 447 906 516 876 q 323 936 378 936 q 234 901 268 936 q 200 812 200 867 q 268 688 200 735 l 343 714 q 329 746 329 730 q 355 771 329 771 q 454 742 381 771 q 564 713 528 713 q 660 748 627 713 q 693 835 693 783 m 857 0 l 857 334 q 623 661 857 661 q 469 606 530 661 q 379 461 407 551 l 325 647 l 49 647 l 49 0 l 410 0 l 410 302 q 458 399 410 399 q 496 351 496 399 l 496 0 l 857 0 "},"ò":{"ha":858,"x_min":17,"x_max":842,"o":"m 314 715 l 530 715 l 463 925 l 172 925 l 314 715 m 481 323 q 468 214 480 240 q 429 187 456 187 q 390 214 401 187 q 378 323 378 240 q 391 433 378 407 q 429 460 403 460 q 468 433 456 460 q 481 323 480 407 m 729 570 q 429 661 616 661 q 129 570 241 661 q 17 323 17 479 q 129 77 16 168 q 429 -14 242 -14 q 729 77 616 -14 q 842 323 842 168 q 729 570 842 479 "},"ó":{"ha":858,"x_min":17,"x_max":842,"o":"m 684 925 l 393 925 l 325 715 l 542 715 l 684 925 m 481 323 q 468 214 480 240 q 429 187 456 187 q 390 214 401 187 q 378 323 378 240 q 391 433 378 407 q 429 460 403 460 q 468 433 456 460 q 481 323 480 407 m 729 570 q 429 661 616 661 q 129 570 241 661 q 17 323 17 479 q 129 77 16 168 q 429 -14 242 -14 q 729 77 616 -14 q 842 323 842 168 q 729 570 842 479 "},"ô":{"ha":858,"x_min":17,"x_max":842,"o":"m 591 925 l 277 925 l 176 707 l 400 707 l 435 832 l 471 707 l 694 707 l 591 925 m 481 323 q 468 214 480 240 q 429 187 456 187 q 390 214 401 187 q 378 323 378 240 q 391 433 378 407 q 429 460 403 460 q 468 433 456 460 q 481 323 480 407 m 729 570 q 429 661 616 661 q 129 570 241 661 q 17 323 17 479 q 129 77 16 168 q 429 -14 242 -14 q 729 77 616 -14 q 842 323 842 168 q 729 570 842 479 "},"õ":{"ha":858,"x_min":17,"x_max":842,"o":"m 668 835 q 602 960 668 917 l 522 926 q 536 899 536 914 q 510 876 536 876 q 422 906 492 876 q 298 936 354 936 q 209 901 243 936 q 175 812 175 867 q 243 688 175 735 l 318 714 q 304 746 304 730 q 330 771 304 771 q 430 742 357 771 q 539 713 503 713 q 635 748 602 713 q 668 835 668 783 m 481 323 q 468 214 480 240 q 429 187 456 187 q 390 214 401 187 q 378 323 378 240 q 391 433 378 407 q 429 460 403 460 q 468 433 456 460 q 481 323 480 407 m 729 570 q 429 661 616 661 q 129 570 241 661 q 17 323 17 479 q 129 77 16 168 q 429 -14 242 -14 q 729 77 616 -14 q 842 323 842 168 q 729 570 842 479 "},"ö":{"ha":858,"x_min":17,"x_max":842,"o":"m 399 720 l 399 925 l 157 925 l 157 720 l 399 720 m 713 720 l 713 925 l 465 925 l 465 720 l 713 720 m 481 323 q 468 214 480 240 q 429 187 456 187 q 390 214 401 187 q 378 323 378 240 q 391 433 378 407 q 429 460 403 460 q 468 433 456 460 q 481 323 480 407 m 729 570 q 429 661 616 661 q 129 570 241 661 q 17 323 17 479 q 129 77 16 168 q 429 -14 242 -14 q 729 77 616 -14 q 842 323 842 168 q 729 570 842 479 "},"÷":{"ha":758,"x_min":56,"x_max":703,"o":"m 518 457 l 518 647 l 240 647 l 240 457 l 518 457 m 518 0 l 518 191 l 240 191 l 240 0 l 518 0 m 703 239 l 703 408 l 56 408 l 56 239 l 703 239 "},"ø":{"ha":858,"x_min":17,"x_max":842,"o":"m 378 323 q 391 433 378 407 q 426 460 403 460 q 460 447 449 460 q 476 396 472 435 l 378 315 l 378 323 m 481 323 q 468 214 480 240 q 432 187 456 187 q 396 201 408 187 q 380 253 384 214 l 481 332 l 481 323 m 751 550 l 840 621 l 808 661 l 711 583 q 422 661 602 661 q 129 570 241 661 q 17 332 17 479 q 106 97 17 186 l 17 26 l 49 -14 l 146 64 q 435 -14 253 -14 q 729 77 616 -14 q 842 315 842 168 q 751 550 842 463 "},"ù":{"ha":903,"x_min":46,"x_max":854,"o":"m 359 715 l 576 715 l 509 925 l 218 925 l 359 715 m 46 647 l 46 314 q 281 -14 46 -14 q 434 41 372 -14 q 524 186 496 96 l 578 0 l 854 0 l 854 647 l 493 647 l 493 345 q 444 249 493 249 q 407 296 407 248 l 407 647 l 46 647 "},"ú":{"ha":903,"x_min":46,"x_max":854,"o":"m 700 925 l 410 925 l 342 715 l 558 715 l 700 925 m 46 647 l 46 314 q 281 -14 46 -14 q 434 41 372 -14 q 524 186 496 96 l 578 0 l 854 0 l 854 647 l 493 647 l 493 345 q 444 249 493 249 q 407 296 407 248 l 407 647 l 46 647 "},"û":{"ha":903,"x_min":46,"x_max":854,"o":"m 612 925 l 297 925 l 197 707 l 421 707 l 456 832 l 492 707 l 715 707 l 612 925 m 46 647 l 46 314 q 281 -14 46 -14 q 434 41 372 -14 q 524 186 496 96 l 578 0 l 854 0 l 854 647 l 493 647 l 493 345 q 444 249 493 249 q 407 296 407 248 l 407 647 l 46 647 "},"ü":{"ha":903,"x_min":46,"x_max":854,"o":"m 418 720 l 418 925 l 176 925 l 176 720 l 418 720 m 732 720 l 732 925 l 485 925 l 485 720 l 732 720 m 46 647 l 46 314 q 281 -14 46 -14 q 434 41 372 -14 q 524 186 496 96 l 578 0 l 854 0 l 854 647 l 493 647 l 493 345 q 444 249 493 249 q 407 296 407 248 l 407 647 l 46 647 "},"ý":{"ha":814,"x_min":-7,"x_max":828,"o":"m 668 925 l 378 925 l 310 715 l 526 715 l 668 925 m 420 -228 q 504 -178 469 -213 q 561 -100 538 -142 q 608 14 583 -58 l 828 647 l 530 647 l 427 271 l 326 647 l -7 647 l 260 -22 q 174 -78 243 -78 q 114 -71 142 -77 l 109 -205 q 285 -241 197 -241 q 420 -228 373 -241 "},"þ":{"ha":891,"x_min":49,"x_max":871,"o":"m 498 218 q 458 187 486 187 q 420 218 431 187 q 410 323 410 250 q 420 427 410 396 q 459 458 431 458 q 499 427 488 458 q 510 323 510 396 q 504 234 510 250 q 498 218 498 218 m 49 -228 l 410 -228 l 410 127 q 485 26 433 66 q 608 -14 536 -14 q 806 80 741 -14 q 871 323 871 174 q 804 567 871 472 q 603 661 738 661 q 410 522 468 661 l 410 925 l 49 925 l 49 -228 "},"ÿ":{"ha":814,"x_min":-7,"x_max":828,"o":"m 396 720 l 396 925 l 154 925 l 154 720 l 396 720 m 710 720 l 710 925 l 463 925 l 463 720 l 710 720 m 420 -228 q 504 -178 469 -213 q 561 -100 538 -142 q 608 14 583 -58 l 828 647 l 530 647 l 427 271 l 326 647 l -7 647 l 260 -22 q 174 -78 243 -78 q 114 -71 142 -77 l 109 -205 q 285 -241 197 -241 q 420 -228 373 -241 "},"Ā":{"ha":1137,"x_min":14,"x_max":1131,"o":"m 848 993 l 848 1153 l 283 1153 l 283 993 l 848 993 m 528 647 l 631 326 l 425 326 l 528 647 m 787 925 l 355 925 l 14 0 l 321 0 l 361 129 l 693 129 l 734 0 l 1131 0 l 787 925 "},"ā":{"ha":890,"x_min":32,"x_max":873,"o":"m 708 726 l 708 904 l 171 904 l 171 726 l 708 726 m 444 187 q 404 139 444 138 q 366 175 366 139 q 444 229 365 220 l 444 187 m 221 -14 q 380 17 311 -14 q 484 111 449 47 q 556 20 504 53 q 669 -14 608 -14 q 787 0 729 -15 q 873 43 846 15 l 873 160 q 833 150 858 151 q 804 193 804 151 l 804 395 q 712 597 804 534 q 435 661 620 661 q 152 603 251 661 q 53 449 53 545 q 82 342 53 397 l 395 408 q 385 452 385 433 q 414 489 385 489 q 443 452 443 489 l 443 328 q 323 335 374 335 q 32 164 32 335 q 82 34 32 81 q 221 -14 132 -14 "},"Ă":{"ha":1137,"x_min":14,"x_max":1131,"o":"m 860 1095 q 840 1147 860 1120 l 606 1147 q 616 1114 616 1131 q 572 1079 617 1079 q 528 1114 528 1079 q 539 1147 528 1131 l 304 1147 q 285 1095 285 1120 q 368 1016 285 1043 q 572 989 450 989 q 777 1016 694 989 q 860 1095 860 1043 m 528 647 l 631 326 l 425 326 l 528 647 m 787 925 l 355 925 l 14 0 l 321 0 l 361 129 l 693 129 l 734 0 l 1131 0 l 787 925 "},"ă":{"ha":890,"x_min":32,"x_max":873,"o":"m 696 840 q 665 925 696 882 l 486 925 q 484 846 515 871 q 439 832 468 832 q 394 846 411 832 q 392 925 363 871 l 212 925 q 182 840 182 882 q 248 739 182 779 q 439 700 315 700 q 630 740 564 700 q 696 840 696 779 m 444 187 q 404 139 444 138 q 366 175 366 139 q 444 229 365 220 l 444 187 m 221 -14 q 380 17 311 -14 q 484 111 449 47 q 556 20 504 53 q 669 -14 608 -14 q 787 0 729 -15 q 873 43 846 15 l 873 160 q 833 150 858 151 q 804 193 804 151 l 804 395 q 712 597 804 534 q 435 661 620 661 q 152 603 251 661 q 53 449 53 545 q 82 342 53 397 l 395 408 q 385 452 385 433 q 414 489 385 489 q 443 452 443 489 l 443 328 q 323 335 374 335 q 32 164 32 335 q 82 34 32 81 q 221 -14 132 -14 "},"Ą":{"ha":1137,"x_min":14,"x_max":1131,"o":"m 528 647 l 631 326 l 425 326 l 528 647 m 829 -241 q 977 -214 914 -241 l 966 -160 q 924 -165 944 -165 q 876 -122 876 -165 q 977 0 877 -56 l 1131 0 l 787 925 l 355 925 l 14 0 l 321 0 l 361 129 l 693 129 l 734 0 l 956 0 q 717 -65 817 -4 q 661 -142 661 -99 q 829 -241 661 -241 "},"ą":{"ha":890,"x_min":32,"x_max":873,"o":"m 444 187 q 404 139 444 138 q 366 175 366 139 q 444 229 365 220 l 444 187 m 653 -241 q 800 -214 738 -241 l 790 -160 q 747 -165 768 -165 q 700 -122 700 -165 q 839 20 700 -66 q 873 45 861 33 l 873 160 q 831 151 859 151 q 804 193 804 151 l 804 395 q 712 597 804 534 q 435 661 620 661 q 152 603 251 661 q 53 449 53 545 q 82 342 53 397 l 395 408 q 385 452 385 433 q 414 489 385 489 q 443 452 443 489 l 443 328 q 323 335 374 335 q 32 164 32 335 q 82 34 32 81 q 221 -14 132 -14 q 380 17 311 -14 q 484 111 449 47 q 556 20 504 53 q 679 -14 608 -14 q 733 -9 704 -14 q 576 -54 633 -33 q 485 -146 485 -87 q 653 -241 485 -241 "},"Ć":{"ha":1019,"x_min":28,"x_max":991,"o":"m 794 1158 l 481 1158 l 424 986 l 659 986 l 794 1158 m 559 675 q 663 633 628 674 q 697 524 697 593 l 972 572 q 852 849 963 757 q 551 942 742 941 q 164 804 300 942 q 28 456 28 667 q 155 114 28 245 q 539 -17 282 -17 q 862 86 741 -17 q 991 335 983 189 l 718 404 q 570 250 694 250 q 419 463 419 250 q 454 615 420 555 q 559 675 490 675 "},"ć":{"ha":770,"x_min":20,"x_max":745,"o":"m 660 925 l 370 925 l 301 715 l 518 715 l 660 925 m 465 400 q 464 368 465 382 l 733 386 q 736 425 736 408 q 650 598 736 535 q 418 661 564 661 q 119 573 218 661 q 20 323 20 485 q 418 -14 19 -14 q 659 47 574 -14 q 745 203 745 109 q 737 257 744 233 l 469 283 l 469 277 q 429 187 469 187 q 380 323 380 187 q 429 460 380 460 q 465 400 465 460 "},"Ĉ":{"ha":1019,"x_min":28,"x_max":991,"o":"m 721 1149 l 378 1149 l 278 986 l 515 986 l 550 1078 l 586 986 l 823 986 l 721 1149 m 559 675 q 663 633 628 674 q 697 524 697 593 l 972 572 q 852 849 963 757 q 551 942 742 941 q 164 804 300 942 q 28 456 28 667 q 155 114 28 245 q 539 -17 282 -17 q 862 86 741 -17 q 991 335 983 189 l 718 404 q 570 250 694 250 q 419 463 419 250 q 454 615 420 555 q 559 675 490 675 "},"ĉ":{"ha":770,"x_min":20,"x_max":745,"o":"m 571 925 l 256 925 l 155 707 l 379 707 l 414 832 l 450 707 l 673 707 l 571 925 m 465 400 q 464 368 465 382 l 733 386 q 736 425 736 408 q 650 598 736 535 q 418 661 564 661 q 119 573 218 661 q 20 323 20 485 q 418 -14 19 -14 q 659 47 574 -14 q 745 203 745 109 q 737 257 744 233 l 469 283 l 469 277 q 429 187 469 187 q 380 323 380 187 q 429 460 380 460 q 465 400 465 460 "},"Ċ":{"ha":1019,"x_min":28,"x_max":991,"o":"m 732 996 l 732 1214 l 371 1214 l 371 996 l 732 996 m 559 675 q 663 633 628 674 q 697 524 697 593 l 972 572 q 852 849 963 757 q 551 942 742 941 q 164 804 300 942 q 28 456 28 667 q 155 114 28 245 q 539 -17 282 -17 q 862 86 741 -17 q 991 335 983 189 l 718 404 q 570 250 694 250 q 419 463 419 250 q 454 615 420 555 q 559 675 490 675 "},"ċ":{"ha":770,"x_min":20,"x_max":745,"o":"m 595 707 l 595 925 l 233 925 l 233 707 l 595 707 m 465 400 q 464 368 465 382 l 733 386 q 736 425 736 408 q 650 598 736 535 q 418 661 564 661 q 119 573 218 661 q 20 323 20 485 q 418 -14 19 -14 q 659 47 574 -14 q 745 203 745 109 q 737 257 744 233 l 469 283 l 469 277 q 429 187 469 187 q 380 323 380 187 q 429 460 380 460 q 465 400 465 460 "},"Č":{"ha":1019,"x_min":28,"x_max":991,"o":"m 827 1149 l 589 1149 l 553 1057 l 518 1149 l 281 1149 l 380 986 l 724 986 l 827 1149 m 559 675 q 663 633 628 674 q 697 524 697 593 l 972 572 q 852 849 963 757 q 551 942 742 941 q 164 804 300 942 q 28 456 28 667 q 155 114 28 245 q 539 -17 282 -17 q 862 86 741 -17 q 991 335 983 189 l 718 404 q 570 250 694 250 q 419 463 419 250 q 454 615 420 555 q 559 675 490 675 "},"č":{"ha":770,"x_min":20,"x_max":745,"o":"m 676 925 l 453 925 l 416 800 l 382 925 l 158 925 l 258 707 l 574 707 l 676 925 m 465 400 q 464 368 465 382 l 733 386 q 736 425 736 408 q 650 598 736 535 q 418 661 564 661 q 119 573 218 661 q 20 323 20 485 q 418 -14 19 -14 q 659 47 574 -14 q 745 203 745 109 q 737 257 744 233 l 469 283 l 469 277 q 429 187 469 187 q 380 323 380 187 q 429 460 380 460 q 465 400 465 460 "},"Ď":{"ha":1066,"x_min":56,"x_max":1047,"o":"m 753 1149 l 515 1149 l 479 1057 l 444 1149 l 207 1149 l 307 986 l 650 986 l 753 1149 m 672 463 q 632 308 673 372 q 505 244 591 244 l 431 244 l 431 681 l 505 681 q 632 617 592 680 q 672 463 672 554 m 916 796 q 547 925 783 925 l 56 925 l 56 0 l 547 0 q 916 129 783 0 q 1047 463 1047 258 q 916 796 1047 667 "},"ď":{"ha":1206,"x_min":21,"x_max":1196,"o":"m 1196 925 l 932 925 l 932 660 l 1054 660 q 940 581 1054 593 l 954 488 q 1139 553 1083 498 q 1196 721 1196 608 l 1196 925 m 473 431 q 481 324 481 403 q 473 216 481 245 q 435 187 464 187 q 395 215 407 187 q 382 320 382 243 q 393 428 381 397 q 435 458 406 458 q 473 431 464 458 m 21 323 q 47 161 21 235 q 140 38 73 90 q 305 -14 206 -14 q 469 34 404 -14 q 566 160 534 82 l 633 0 l 843 0 l 843 925 l 482 925 l 482 522 q 404 623 456 584 q 285 661 353 661 q 87 567 154 662 q 21 323 21 472 "},"Đ":{"ha":1126,"x_min":41,"x_max":1107,"o":"m 732 463 q 692 308 732 372 q 566 244 652 244 l 490 244 l 490 400 l 611 400 l 611 526 l 490 526 l 490 681 l 566 681 q 692 617 652 680 q 732 463 732 554 m 41 400 l 115 400 l 115 0 l 607 0 q 975 129 843 0 q 1107 463 1107 258 q 975 796 1107 667 q 607 925 843 925 l 115 925 l 115 526 l 41 526 l 41 400 "},"đ":{"ha":904,"x_min":21,"x_max":918,"o":"m 473 431 q 481 324 481 403 q 473 216 481 245 q 435 187 464 187 q 395 215 407 187 q 382 320 382 243 q 393 428 381 397 q 435 458 406 458 q 473 431 464 458 m 346 688 l 482 688 l 482 522 q 404 623 456 584 q 285 661 353 661 q 87 567 154 662 q 21 323 21 472 q 47 162 21 235 q 140 38 73 90 q 305 -14 206 -14 q 469 34 404 -14 q 566 160 534 82 l 633 0 l 843 0 l 843 688 l 918 688 l 918 821 l 843 821 l 843 925 l 482 925 l 482 821 l 346 821 l 346 688 "},"Ē":{"ha":913,"x_min":56,"x_max":865,"o":"m 751 993 l 751 1153 l 186 1153 l 186 993 l 751 993 m 865 0 l 865 253 l 431 253 l 431 364 l 765 364 l 765 572 l 431 572 l 431 672 l 857 672 l 857 925 l 56 925 l 56 0 l 865 0 "},"ē":{"ha":800,"x_min":25,"x_max":765,"o":"m 684 726 l 684 904 l 146 904 l 146 726 l 684 726 m 471 414 q 468 378 471 406 l 386 378 q 430 489 389 489 q 471 414 471 489 m 441 174 q 404 195 418 174 q 386 286 391 217 l 760 286 q 740 513 787 423 q 659 601 710 570 q 418 661 557 661 q 124 566 223 661 q 25 323 25 471 q 404 -14 25 -14 q 765 167 765 -14 q 760 212 765 190 l 475 239 q 479 215 479 226 q 441 174 479 174 "},"Ĕ":{"ha":913,"x_min":56,"x_max":865,"o":"m 680 1016 q 762 1095 762 1043 q 743 1147 763 1120 l 509 1147 q 519 1114 519 1131 q 475 1079 519 1079 q 431 1114 430 1079 q 441 1147 431 1131 l 207 1147 q 187 1095 187 1120 q 270 1016 187 1043 q 475 989 353 989 q 638 1002 597 989 q 680 1016 680 1016 m 865 0 l 865 253 l 431 253 l 431 364 l 765 364 l 765 572 l 431 572 l 431 672 l 857 672 l 857 925 l 56 925 l 56 0 l 865 0 "},"ĕ":{"ha":800,"x_min":25,"x_max":765,"o":"m 688 840 q 657 925 688 882 l 478 925 q 492 880 492 900 q 476 846 492 859 q 431 832 460 832 q 385 846 401 832 q 370 880 369 859 q 383 925 370 900 l 204 925 q 174 840 174 882 q 240 739 174 779 q 431 700 307 700 q 621 740 555 700 q 688 840 688 779 m 471 414 q 468 378 471 406 l 386 378 q 430 489 389 489 q 471 414 471 489 m 441 174 q 404 195 418 174 q 386 286 391 217 l 760 286 q 740 513 787 423 q 659 601 710 570 q 418 661 557 661 q 124 566 223 661 q 25 323 25 471 q 404 -14 25 -14 q 765 167 765 -14 q 760 212 765 190 l 475 239 q 479 215 479 226 q 441 174 479 174 "},"Ė":{"ha":913,"x_min":56,"x_max":865,"o":"m 653 996 l 653 1214 l 292 1214 l 292 996 l 653 996 m 865 0 l 865 253 l 431 253 l 431 364 l 765 364 l 765 572 l 431 572 l 431 672 l 857 672 l 857 925 l 56 925 l 56 0 l 865 0 "},"ė":{"ha":800,"x_min":25,"x_max":765,"o":"m 597 707 l 597 925 l 236 925 l 236 707 l 597 707 m 471 414 q 468 378 471 406 l 386 378 q 430 489 389 489 q 471 414 471 489 m 441 174 q 404 195 418 174 q 386 286 391 217 l 760 286 q 740 513 787 423 q 659 601 710 570 q 418 661 557 661 q 124 566 223 661 q 25 323 25 471 q 404 -14 25 -14 q 765 167 765 -14 q 760 212 765 190 l 475 239 q 479 215 479 226 q 441 174 479 174 "},"Ę":{"ha":913,"x_min":56,"x_max":865,"o":"m 718 -241 q 865 -214 803 -241 l 856 -160 q 812 -165 833 -165 q 765 -122 765 -165 q 865 0 766 -56 l 865 253 l 431 253 l 431 364 l 765 364 l 765 572 l 431 572 l 431 672 l 857 672 l 857 925 l 56 925 l 56 0 l 838 0 q 688 -35 779 -9 q 595 -74 640 -47 q 550 -142 550 -101 q 718 -241 550 -241 "},"ę":{"ha":800,"x_min":25,"x_max":770,"o":"m 471 414 q 468 378 471 406 l 386 378 q 430 489 389 489 q 471 414 471 489 m 464 -241 q 611 -214 549 -241 l 602 -160 q 558 -165 579 -165 q 511 -126 511 -165 q 551 -58 511 -100 q 665 25 591 -16 q 765 167 765 83 q 760 212 765 190 l 475 239 q 479 215 479 226 q 441 174 479 174 q 404 195 418 174 q 386 286 391 217 l 760 286 q 770 395 770 334 q 740 513 770 456 q 659 601 710 570 q 418 661 557 661 q 124 566 223 661 q 25 323 25 471 q 404 -14 25 -14 q 578 0 492 -14 q 296 -155 296 -65 q 464 -241 296 -241 "},"Ě":{"ha":913,"x_min":56,"x_max":865,"o":"m 743 1149 l 505 1149 l 469 1057 l 435 1149 l 197 1149 l 297 986 l 640 986 l 743 1149 m 865 0 l 865 253 l 431 253 l 431 364 l 765 364 l 765 572 l 431 572 l 431 672 l 857 672 l 857 925 l 56 925 l 56 0 l 865 0 "},"ě":{"ha":800,"x_min":25,"x_max":765,"o":"m 681 925 l 457 925 l 421 800 l 386 925 l 163 925 l 262 707 l 578 707 l 681 925 m 471 414 q 468 378 471 406 l 386 378 q 430 489 389 489 q 471 414 471 489 m 441 174 q 404 195 418 174 q 386 286 391 217 l 760 286 q 740 513 787 423 q 659 601 710 570 q 418 661 557 661 q 124 566 223 661 q 25 323 25 471 q 404 -14 25 -14 q 765 167 765 -14 q 760 212 765 190 l 475 239 q 479 215 479 226 q 441 174 479 174 "},"Ĝ":{"ha":1082,"x_min":25,"x_max":1034,"o":"m 728 1149 l 385 1149 l 285 986 l 522 986 l 557 1078 l 593 986 l 831 986 l 728 1149 m 602 330 l 705 330 q 583 227 683 227 q 469 294 505 227 q 432 460 432 361 q 473 616 432 559 q 589 675 513 675 q 725 533 707 675 l 1007 591 q 883 853 1001 764 q 581 942 765 943 q 172 810 319 942 q 25 461 25 680 q 153 113 26 243 q 515 -17 281 -18 q 695 31 615 -17 q 803 143 775 79 l 835 0 l 1034 0 l 1034 475 l 602 475 l 602 330 "},"ĝ":{"ha":871,"x_min":-21,"x_max":901,"o":"m 411 366 q 365 442 365 365 q 412 519 365 519 q 460 442 460 519 q 411 366 460 365 m 463 -25 q 530 -58 530 -25 q 409 -90 530 -90 q 288 -56 288 -90 q 342 -25 288 -25 l 463 -25 m 571 925 l 256 925 l 155 707 l 379 707 l 414 832 l 450 707 l 673 707 l 571 925 m 53 441 q 199 257 53 314 q 72 205 125 240 q 20 117 20 171 q 196 -21 20 -1 q 47 -50 115 -24 q -21 -122 -20 -76 q 393 -241 -20 -241 q 729 -190 621 -242 q 838 -27 838 -138 q 741 138 838 83 q 475 192 643 192 l 288 192 q 248 215 248 191 q 258 239 248 231 q 411 225 322 225 q 677 284 582 225 q 772 441 772 343 q 746 524 772 482 q 786 542 764 542 q 829 509 808 542 l 901 586 q 798 704 888 704 q 730 664 754 704 q 705 571 705 624 q 422 660 602 660 q 147 601 241 661 q 53 441 53 541 "},"Ğ":{"ha":1082,"x_min":25,"x_max":1034,"o":"m 856 1095 q 836 1147 856 1120 l 602 1147 q 612 1114 612 1131 q 568 1079 613 1079 q 524 1114 524 1079 q 534 1147 524 1131 l 300 1147 q 281 1095 281 1120 q 363 1016 281 1043 q 568 989 446 989 q 773 1016 690 989 q 856 1095 856 1043 m 602 330 l 705 330 q 583 227 683 227 q 469 294 505 227 q 432 460 432 361 q 473 616 432 559 q 589 675 513 675 q 725 533 707 675 l 1007 591 q 883 853 1001 764 q 581 942 765 943 q 172 810 319 942 q 25 461 25 680 q 153 113 26 243 q 515 -17 281 -18 q 695 31 615 -17 q 803 143 775 79 l 835 0 l 1034 0 l 1034 475 l 602 475 l 602 330 "},"ğ":{"ha":871,"x_min":-21,"x_max":901,"o":"m 681 925 l 457 925 l 421 800 l 386 925 l 163 925 l 262 707 l 578 707 l 681 925 m 411 366 q 365 442 365 365 q 412 519 365 519 q 460 442 460 519 q 411 366 460 365 m 463 -25 q 530 -58 530 -25 q 409 -90 530 -90 q 288 -56 288 -90 q 342 -25 288 -25 l 463 -25 m 53 441 q 199 257 53 314 q 72 205 125 240 q 20 117 20 171 q 196 -21 20 -1 q 47 -50 115 -24 q -21 -122 -20 -76 q 393 -241 -20 -241 q 729 -190 621 -242 q 838 -27 838 -138 q 741 138 838 83 q 475 192 643 192 l 288 192 q 248 215 248 191 q 258 239 248 231 q 411 225 322 225 q 677 284 582 225 q 772 441 772 343 q 746 524 772 482 q 786 542 764 542 q 829 509 808 542 l 901 586 q 798 704 888 704 q 730 664 754 704 q 705 571 705 624 q 422 660 602 660 q 147 601 241 661 q 53 441 53 541 "},"Ġ":{"ha":1082,"x_min":25,"x_max":1034,"o":"m 753 996 l 753 1214 l 392 1214 l 392 996 l 753 996 m 602 330 l 705 330 q 583 227 683 227 q 469 294 505 227 q 432 460 432 361 q 473 616 432 559 q 589 675 513 675 q 725 533 707 675 l 1007 591 q 883 853 1001 764 q 581 942 765 943 q 172 810 319 942 q 25 461 25 680 q 153 113 26 243 q 515 -17 281 -18 q 695 31 615 -17 q 803 143 775 79 l 835 0 l 1034 0 l 1034 475 l 602 475 l 602 330 "},"ġ":{"ha":871,"x_min":-21,"x_max":901,"o":"m 590 707 l 590 925 l 229 925 l 229 707 l 590 707 m 411 366 q 365 442 365 365 q 412 519 365 519 q 460 442 460 519 q 411 366 460 365 m 463 -25 q 530 -58 530 -25 q 409 -90 530 -90 q 288 -56 288 -90 q 342 -25 288 -25 l 463 -25 m 53 441 q 199 257 53 314 q 72 205 125 240 q 20 117 20 171 q 196 -21 20 -1 q 47 -50 115 -24 q -21 -122 -20 -76 q 393 -241 -20 -241 q 729 -190 621 -242 q 838 -27 838 -138 q 741 138 838 83 q 475 192 643 192 l 288 192 q 248 215 248 191 q 258 239 248 231 q 411 225 322 225 q 677 284 582 225 q 772 441 772 343 q 746 524 772 482 q 786 542 764 542 q 829 509 808 542 l 901 586 q 798 704 888 704 q 730 664 754 704 q 705 571 705 624 q 422 660 602 660 q 147 601 241 661 q 53 441 53 541 "},"Ģ":{"ha":1082,"x_min":25,"x_max":1034,"o":"m 725 -83 l 443 -83 l 443 -262 l 586 -262 q 446 -339 574 -331 l 454 -411 q 725 -222 725 -407 l 725 -83 m 602 330 l 705 330 q 583 227 683 227 q 469 294 505 227 q 432 460 432 361 q 473 616 432 559 q 589 675 513 675 q 725 533 707 675 l 1007 591 q 883 853 1001 764 q 581 942 765 943 q 172 810 319 942 q 25 461 25 680 q 153 113 26 243 q 515 -17 281 -18 q 695 31 615 -17 q 803 143 775 79 l 835 0 l 1034 0 l 1034 475 l 602 475 l 602 330 "},"ģ":{"ha":871,"x_min":-21,"x_max":901,"o":"m 282 707 l 564 707 l 564 899 l 421 899 q 561 970 430 962 l 553 1042 q 282 852 282 1037 l 282 707 m 411 366 q 365 442 365 365 q 412 519 365 519 q 460 442 460 519 q 411 366 460 365 m 463 -25 q 530 -58 530 -25 q 409 -90 530 -90 q 288 -56 288 -90 q 342 -25 288 -25 l 463 -25 m 53 441 q 199 257 53 314 q 72 205 125 240 q 20 117 20 171 q 196 -21 20 -1 q 47 -50 115 -24 q -21 -122 -20 -76 q 393 -241 -20 -241 q 729 -190 621 -242 q 838 -27 838 -138 q 741 138 838 83 q 475 192 643 192 l 288 192 q 248 215 248 191 q 258 239 248 231 q 411 225 322 225 q 677 284 582 225 q 772 441 772 343 q 746 524 772 482 q 786 542 764 542 q 829 509 808 542 l 901 586 q 798 704 888 704 q 730 664 754 704 q 705 571 705 624 q 422 660 602 660 q 147 601 241 661 q 53 441 53 541 "},"Ĥ":{"ha":1105,"x_min":56,"x_max":1050,"o":"m 724 1149 l 380 1149 l 281 986 l 518 986 l 553 1078 l 589 986 l 827 986 l 724 1149 m 1050 0 l 1050 925 l 675 925 l 675 597 l 431 597 l 431 925 l 56 925 l 56 0 l 431 0 l 431 330 l 675 330 l 675 0 l 1050 0 "},"ĥ":{"ha":903,"x_min":-43,"x_max":857,"o":"m 400 1149 l 57 1149 l -43 986 l 195 986 l 229 1078 l 265 986 l 503 986 l 400 1149 m 857 0 l 857 334 q 623 661 857 661 q 487 603 545 661 q 410 461 429 545 l 410 925 l 49 925 l 49 0 l 410 0 l 410 315 q 423 376 410 353 q 458 399 436 399 q 496 351 496 399 l 496 0 l 857 0 "},"Ħ":{"ha":1189,"x_min":28,"x_max":1161,"o":"m 472 597 l 472 688 l 717 688 l 717 597 l 472 597 m 28 688 l 97 688 l 97 0 l 472 0 l 472 330 l 717 330 l 717 0 l 1092 0 l 1092 688 l 1161 688 l 1161 832 l 1092 832 l 1092 925 l 717 925 l 717 832 l 472 832 l 472 925 l 97 925 l 97 832 l 28 832 l 28 688 "},"ħ":{"ha":922,"x_min":-7,"x_max":876,"o":"m 876 0 l 876 334 q 642 661 876 661 q 506 603 564 661 q 429 461 449 545 l 429 688 l 566 688 l 566 821 l 429 821 l 429 925 l 68 925 l 68 821 l -7 821 l -7 688 l 68 688 l 68 0 l 429 0 l 429 315 q 442 376 429 353 q 478 399 456 399 q 515 351 515 399 l 515 0 l 876 0 "},"Ĩ":{"ha":500,"x_min":-7,"x_max":500,"o":"m 500 1092 q 432 1214 500 1169 l 355 1178 q 368 1153 368 1167 q 346 1131 369 1131 q 247 1160 323 1131 q 116 1190 171 1190 q 27 1160 61 1190 q -7 1084 -7 1129 q 66 962 -7 1015 l 127 1000 q 119 1019 119 1011 q 143 1035 119 1035 q 250 1006 167 1035 q 382 977 334 977 q 466 1010 431 977 q 500 1092 500 1043 m 437 0 l 437 925 l 62 925 l 62 0 l 437 0 "},"ĩ":{"ha":458,"x_min":-22,"x_max":471,"o":"m 471 835 q 404 960 471 917 l 325 926 q 339 899 338 914 q 313 876 339 876 q 226 906 294 876 q 102 936 157 936 q 12 901 46 936 q -22 812 -22 867 q 46 688 -22 735 l 121 714 q 107 746 107 730 q 133 771 107 771 q 233 742 159 771 q 342 713 306 713 q 437 748 404 713 q 471 835 471 783 m 410 0 l 410 647 l 49 647 l 49 0 l 410 0 "},"Ī":{"ha":500,"x_min":-32,"x_max":533,"o":"m 533 993 l 533 1153 l -32 1153 l -32 993 l 533 993 m 437 0 l 437 925 l 62 925 l 62 0 l 437 0 "},"ī":{"ha":458,"x_min":-39,"x_max":498,"o":"m 498 726 l 498 904 l -39 904 l -39 726 l 498 726 m 410 0 l 410 647 l 49 647 l 49 0 l 410 0 "},"Ĭ":{"ha":500,"x_min":-37,"x_max":538,"o":"m 538 1095 q 518 1147 538 1120 l 283 1147 q 294 1114 294 1131 q 250 1079 295 1079 q 205 1114 205 1079 q 216 1147 205 1131 l -18 1147 q -37 1095 -37 1120 q 45 1016 -37 1043 q 250 989 128 989 q 455 1016 372 989 q 538 1095 538 1043 m 437 0 l 437 925 l 62 925 l 62 0 l 437 0 "},"ĭ":{"ha":458,"x_min":-28,"x_max":486,"o":"m 486 840 q 456 925 486 882 l 277 925 q 290 880 290 900 q 274 846 290 859 q 229 832 258 832 q 184 846 201 832 q 168 880 168 859 q 182 925 168 900 l 3 925 q -28 840 -28 882 q 38 739 -28 779 q 229 700 104 700 q 420 740 354 700 q 486 840 486 779 m 410 0 l 410 647 l 49 647 l 49 0 l 410 0 "},"Į":{"ha":500,"x_min":41,"x_max":437,"o":"m 210 -241 q 343 -214 281 -241 l 334 -160 q 300 -165 311 -165 q 257 -129 257 -165 q 315 0 257 -61 l 437 0 l 437 925 l 62 925 l 62 0 l 300 0 q 225 -12 265 -3 q 70 -88 119 -37 q 41 -155 41 -118 q 210 -241 41 -241 "},"į":{"ha":458,"x_min":35,"x_max":410,"o":"m 410 693 l 410 925 l 49 925 l 49 693 l 410 693 m 203 -241 q 336 -214 274 -241 l 326 -160 q 293 -165 304 -165 q 250 -129 250 -165 q 309 0 250 -61 l 410 0 l 410 647 l 49 647 l 49 0 l 293 0 q 218 -12 258 -3 q 63 -88 112 -37 q 35 -155 35 -118 q 203 -241 35 -241 "},"İ":{"ha":500,"x_min":62,"x_max":437,"o":"m 431 996 l 431 1214 l 69 1214 l 69 996 l 431 996 m 437 0 l 437 925 l 62 925 l 62 0 l 437 0 "},"ı":{"ha":458,"x_min":49,"x_max":410,"o":"m 410 0 l 410 647 l 49 647 l 49 0 l 410 0 "},"Ĳ":{"ha":1400,"x_min":62,"x_max":1358,"o":"m 1358 925 l 983 925 l 983 355 q 901 252 983 252 q 831 319 831 252 q 860 415 831 362 l 640 503 q 529 262 529 388 q 625 60 529 136 q 921 -17 721 -17 q 1309 158 1214 -17 q 1349 270 1339 213 q 1358 396 1358 327 l 1358 925 m 437 0 l 437 925 l 62 925 l 62 0 l 437 0 "},"ĳ":{"ha":916,"x_min":49,"x_max":868,"o":"m 868 693 l 868 925 l 507 925 l 507 693 l 868 693 m 507 647 l 507 -3 q 495 -52 507 -35 q 454 -68 484 -68 q 408 -64 424 -68 l 404 -200 q 600 -241 496 -241 q 805 -179 742 -241 q 868 11 868 -117 l 868 647 l 507 647 m 410 0 l 410 647 l 49 647 l 49 0 l 410 0 m 410 693 l 410 925 l 49 925 l 49 693 l 410 693 "},"Ĵ":{"ha":900,"x_min":29,"x_max":947,"o":"m 844 1149 l 501 1149 l 401 986 l 639 986 l 673 1078 l 710 986 l 947 986 l 844 1149 m 859 925 l 484 925 l 484 355 q 401 252 484 252 q 330 319 330 252 q 359 415 330 362 l 140 503 q 29 262 29 388 q 125 60 29 136 q 420 -17 221 -17 q 809 158 715 -17 q 849 270 840 213 q 859 396 859 327 l 859 925 "},"ĵ":{"ha":458,"x_min":-54,"x_max":489,"o":"m 386 925 l 71 925 l -29 707 l 195 707 l 229 832 l 265 707 l 489 707 l 386 925 m 49 647 l 49 -3 q 37 -52 48 -35 q -5 -68 25 -68 q -50 -64 -35 -68 l -54 -200 q 142 -241 37 -241 q 347 -179 283 -241 q 410 11 410 -117 l 410 647 l 49 647 "},"Ķ":{"ha":1095,"x_min":56,"x_max":1084,"o":"m 676 -83 l 395 -83 l 395 -262 l 538 -262 q 397 -339 526 -331 l 406 -411 q 676 -222 676 -407 l 676 -83 m 431 0 l 431 183 l 507 290 l 643 0 l 1084 0 l 800 549 l 1075 925 l 667 925 l 431 595 l 431 925 l 56 925 l 56 0 l 431 0 "},"ķ":{"ha":911,"x_min":49,"x_max":907,"o":"m 618 -83 l 336 -83 l 336 -262 l 479 -262 q 339 -339 468 -331 l 347 -411 q 618 -222 618 -407 l 618 -83 m 410 0 l 410 132 l 450 192 l 538 0 l 907 0 l 685 379 l 893 647 l 557 647 l 410 439 l 410 925 l 49 925 l 49 0 l 410 0 "},"ĸ":{"ha":911,"x_min":49,"x_max":907,"o":"m 410 0 l 410 132 l 450 192 l 538 0 l 907 0 l 685 379 l 893 647 l 557 647 l 410 439 l 410 647 l 49 647 l 49 0 l 410 0 "},"Ĺ":{"ha":854,"x_min":56,"x_max":823,"o":"m 493 1158 l 179 1158 l 122 986 l 357 986 l 493 1158 m 823 0 l 823 250 l 431 250 l 431 925 l 56 925 l 56 0 l 823 0 "},"ĺ":{"ha":458,"x_min":49,"x_max":485,"o":"m 485 1158 l 171 1158 l 114 986 l 349 986 l 485 1158 m 410 0 l 410 925 l 49 925 l 49 0 l 410 0 "},"Ļ":{"ha":854,"x_min":56,"x_max":823,"o":"m 597 -83 l 315 -83 l 315 -262 l 458 -262 q 318 -339 447 -331 l 326 -411 q 597 -222 597 -407 l 597 -83 m 823 0 l 823 250 l 431 250 l 431 925 l 56 925 l 56 0 l 823 0 "},"ļ":{"ha":458,"x_min":49,"x_max":410,"o":"m 366 -83 l 83 -83 l 83 -262 l 227 -262 q 86 -339 215 -331 l 94 -411 q 366 -222 366 -407 l 366 -83 m 410 0 l 410 925 l 49 925 l 49 0 l 410 0 "},"Ľ":{"ha":854,"x_min":56,"x_max":823,"o":"m 803 925 l 521 925 l 521 688 l 664 688 q 524 611 652 619 l 532 539 q 803 728 803 543 l 803 925 m 823 0 l 823 250 l 431 250 l 431 925 l 56 925 l 56 0 l 823 0 "},"ľ":{"ha":762,"x_min":49,"x_max":762,"o":"m 762 925 l 481 925 l 481 688 l 624 688 q 484 611 612 619 l 492 539 q 762 728 762 543 l 762 925 m 410 0 l 410 925 l 49 925 l 49 0 l 410 0 "},"Ŀ":{"ha":854,"x_min":56,"x_max":823,"o":"m 798 334 l 798 612 l 494 612 l 494 334 l 798 334 m 823 0 l 823 250 l 431 250 l 431 925 l 56 925 l 56 0 l 823 0 "},"ŀ":{"ha":760,"x_min":49,"x_max":739,"o":"m 739 178 l 739 457 l 467 457 l 467 178 l 739 178 m 410 0 l 410 925 l 49 925 l 49 0 l 410 0 "},"Ł":{"ha":932,"x_min":4,"x_max":901,"o":"m 134 925 l 134 440 l 4 378 l 53 278 l 134 317 l 134 0 l 901 0 l 901 250 l 509 250 l 509 498 l 720 602 l 671 701 l 509 623 l 509 925 l 134 925 "},"ł":{"ha":611,"x_min":7,"x_max":611,"o":"m 118 925 l 118 452 l 7 399 l 53 304 l 118 335 l 118 0 l 479 0 l 479 509 l 611 572 l 566 667 l 479 625 l 479 925 l 118 925 "},"Ń":{"ha":1119,"x_min":56,"x_max":1064,"o":"m 818 1158 l 504 1158 l 447 986 l 682 986 l 818 1158 m 389 0 l 389 416 l 701 0 l 1064 0 l 1064 925 l 730 925 l 730 507 l 418 925 l 56 925 l 56 0 l 389 0 "},"ń":{"ha":903,"x_min":49,"x_max":857,"o":"m 684 925 l 393 925 l 325 715 l 542 715 l 684 925 m 857 0 l 857 334 q 623 661 857 661 q 469 606 530 661 q 379 461 407 551 l 325 647 l 49 647 l 49 0 l 410 0 l 410 302 q 458 399 410 399 q 496 351 496 399 l 496 0 l 857 0 "},"Ņ":{"ha":1119,"x_min":56,"x_max":1064,"o":"m 707 -83 l 425 -83 l 425 -262 l 568 -262 q 428 -339 557 -331 l 436 -411 q 707 -222 707 -407 l 707 -83 m 389 0 l 389 416 l 701 0 l 1064 0 l 1064 925 l 730 925 l 730 507 l 418 925 l 56 925 l 56 0 l 389 0 "},"ņ":{"ha":903,"x_min":49,"x_max":857,"o":"m 602 -83 l 319 -83 l 319 -262 l 463 -262 q 322 -339 451 -331 l 330 -411 q 602 -222 602 -407 l 602 -83 m 857 0 l 857 334 q 623 661 857 661 q 469 606 530 661 q 379 461 407 551 l 325 647 l 49 647 l 49 0 l 410 0 l 410 302 q 458 399 410 399 q 496 351 496 399 l 496 0 l 857 0 "},"Ň":{"ha":1119,"x_min":56,"x_max":1064,"o":"m 840 1149 l 603 1149 l 567 1057 l 532 1149 l 294 1149 l 395 986 l 737 986 l 840 1149 m 389 0 l 389 416 l 701 0 l 1064 0 l 1064 925 l 730 925 l 730 507 l 418 925 l 56 925 l 56 0 l 389 0 "},"ň":{"ha":903,"x_min":49,"x_max":857,"o":"m 704 925 l 481 925 l 444 800 l 410 925 l 186 925 l 286 707 l 602 707 l 704 925 m 857 0 l 857 334 q 623 661 857 661 q 469 606 530 661 q 379 461 407 551 l 325 647 l 49 647 l 49 0 l 410 0 l 410 302 q 458 399 410 399 q 496 351 496 399 l 496 0 l 857 0 "},"ŉ":{"ha":1190,"x_min":11,"x_max":1145,"o":"m 1145 0 l 1145 334 q 909 661 1144 661 q 756 606 818 661 q 667 461 694 551 l 612 647 l 336 647 l 336 0 l 697 0 l 697 302 q 746 399 697 399 q 783 351 783 399 l 783 0 l 1145 0 m 275 925 l 11 925 l 11 660 l 134 660 q 20 581 134 593 l 33 488 q 219 553 163 498 q 275 721 275 608 l 275 925 "},"Ŋ":{"ha":1119,"x_min":56,"x_max":1064,"o":"m 389 0 l 389 416 l 703 0 l 703 -3 q 691 -52 703 -36 q 650 -68 680 -68 q 604 -64 620 -68 l 600 -200 q 796 -241 692 -241 q 1001 -179 938 -241 q 1064 11 1064 -117 l 1064 925 l 730 925 l 730 507 l 418 925 l 56 925 l 56 0 l 389 0 "},"ŋ":{"ha":903,"x_min":49,"x_max":857,"o":"m 397 -64 l 393 -200 q 589 -241 484 -241 q 793 -179 730 -241 q 857 11 857 -117 l 857 334 q 623 661 857 661 q 469 606 530 661 q 379 461 407 551 l 325 647 l 49 647 l 49 0 l 410 0 l 410 302 q 458 399 410 399 q 496 351 496 399 l 496 -3 q 484 -52 496 -36 q 442 -68 472 -68 q 397 -64 412 -68 "},"Ō":{"ha":1122,"x_min":25,"x_max":1097,"o":"m 844 993 l 844 1153 l 279 1153 l 279 993 l 844 993 m 673 310 q 562 250 639 250 q 449 310 484 250 q 414 463 414 370 q 449 615 415 555 q 561 675 483 675 q 673 615 639 675 q 708 463 708 555 q 691 340 708 370 q 673 310 673 310 m 956 803 q 562 942 814 942 q 167 803 309 942 q 25 463 25 664 q 167 122 26 261 q 561 -17 308 -17 q 956 122 814 -17 q 1097 463 1097 261 q 1026 733 1097 664 q 956 803 956 803 "},"ō":{"ha":858,"x_min":17,"x_max":842,"o":"m 699 726 l 699 904 l 161 904 l 161 726 l 699 726 m 481 323 q 468 214 480 240 q 429 187 456 187 q 390 214 401 187 q 378 323 378 240 q 391 433 378 407 q 429 460 403 460 q 468 433 456 460 q 481 323 480 407 m 729 570 q 429 661 616 661 q 129 570 241 661 q 17 323 17 479 q 129 77 16 168 q 429 -14 242 -14 q 729 77 616 -14 q 842 323 842 168 q 729 570 842 479 "},"Ŏ":{"ha":1122,"x_min":25,"x_max":1097,"o":"m 766 1016 q 848 1095 848 1043 q 829 1147 849 1120 l 595 1147 q 606 1114 606 1131 q 562 1079 606 1079 q 517 1114 517 1079 q 528 1147 517 1131 l 293 1147 q 273 1095 273 1120 q 356 1016 273 1043 q 561 989 439 989 q 724 1002 683 989 q 766 1016 766 1016 m 673 310 q 562 250 639 250 q 449 310 484 250 q 414 463 414 370 q 449 615 415 555 q 561 675 483 675 q 673 615 639 675 q 708 463 708 555 q 691 340 708 370 q 673 310 673 310 m 956 803 q 562 942 814 942 q 167 803 309 942 q 25 463 25 664 q 167 122 26 261 q 561 -17 308 -17 q 956 122 814 -17 q 1097 463 1097 261 q 1026 733 1097 664 q 956 803 956 803 "},"ŏ":{"ha":858,"x_min":17,"x_max":842,"o":"m 686 840 q 656 925 686 882 l 476 925 q 475 846 505 871 q 429 832 458 832 q 384 846 400 832 q 368 880 368 859 q 382 925 368 900 l 203 925 q 172 840 172 882 q 239 739 172 779 q 429 700 305 700 q 620 740 553 700 q 686 840 686 779 m 481 323 q 468 214 480 240 q 429 187 456 187 q 390 214 401 187 q 378 323 378 240 q 391 433 378 407 q 429 460 403 460 q 468 433 456 460 q 481 323 480 407 m 729 570 q 429 661 616 661 q 129 570 241 661 q 17 323 17 479 q 129 77 16 168 q 429 -14 242 -14 q 729 77 616 -14 q 842 323 842 168 q 729 570 842 479 "},"Ő":{"ha":1122,"x_min":25,"x_max":1097,"o":"m 990 1158 l 676 1158 l 612 986 l 854 986 l 990 1158 m 612 1158 l 326 1158 l 269 986 l 546 986 l 612 1158 m 673 310 q 562 250 639 250 q 449 310 484 250 q 414 463 414 370 q 449 615 415 555 q 561 675 483 675 q 673 615 639 675 q 708 463 708 555 q 691 340 708 370 q 673 310 673 310 m 956 803 q 562 942 814 942 q 167 803 309 942 q 25 463 25 664 q 167 122 26 261 q 561 -17 308 -17 q 956 122 814 -17 q 1097 463 1097 261 q 1026 733 1097 664 q 956 803 956 803 "},"ő":{"ha":858,"x_min":17,"x_max":842,"o":"m 800 925 l 521 925 l 472 715 l 729 715 l 800 925 m 461 925 l 204 925 l 157 715 l 412 715 l 461 925 m 481 323 q 468 214 480 240 q 429 187 456 187 q 390 214 401 187 q 378 323 378 240 q 391 433 378 407 q 429 460 403 460 q 468 433 456 460 q 481 323 480 407 m 729 570 q 429 661 616 661 q 129 570 241 661 q 17 323 17 479 q 129 77 16 168 q 429 -14 242 -14 q 729 77 616 -14 q 842 323 842 168 q 729 570 842 479 "},"Œ":{"ha":1552,"x_min":25,"x_max":1504,"o":"m 673 310 q 562 250 639 250 q 449 310 484 250 q 414 463 414 370 q 449 615 415 555 q 561 675 483 675 q 673 615 639 675 q 708 463 708 555 q 691 340 708 370 q 673 310 673 310 m 1504 0 l 1504 249 l 1083 249 l 1083 376 l 1404 376 l 1404 557 l 1083 557 l 1083 676 l 1496 676 l 1496 925 l 720 925 q 561 942 647 942 q 167 803 309 942 q 25 463 25 664 q 167 122 26 261 q 561 -17 308 -17 q 717 0 636 -17 l 1504 0 "},"œ":{"ha":1255,"x_min":17,"x_max":1226,"o":"m 890 489 q 926 418 926 489 q 924 378 926 400 l 842 378 l 842 396 q 890 489 842 489 m 481 323 q 468 214 480 240 q 429 187 456 187 q 390 214 401 187 q 378 323 378 240 q 391 433 378 407 q 429 460 403 460 q 468 433 456 460 q 481 323 480 407 m 897 174 q 860 195 873 174 q 842 286 846 217 l 1215 286 q 1226 386 1226 345 q 1179 549 1227 485 q 1062 637 1130 612 q 907 661 994 661 q 654 561 738 661 q 401 661 545 661 q 124 570 232 661 q 17 323 17 477 q 124 78 16 170 q 397 -14 232 -14 q 643 81 563 -14 q 899 -14 743 -14 q 1137 33 1054 -14 q 1219 172 1219 81 q 1215 212 1219 191 l 930 239 q 935 214 935 226 q 897 174 935 174 "},"Ŕ":{"ha":1109,"x_min":56,"x_max":1103,"o":"m 786 1158 l 472 1158 l 415 986 l 650 986 l 786 1158 m 557 509 l 431 509 l 431 663 l 571 663 q 645 642 619 663 q 671 587 671 622 q 640 530 671 552 q 557 509 610 509 m 1046 675 q 939 857 1046 789 q 616 925 833 925 l 56 925 l 56 0 l 431 0 l 431 355 l 511 355 q 567 311 550 356 q 608 163 579 270 q 686 0 637 57 l 1103 0 q 1021 140 1046 63 q 997 228 1013 168 q 924 376 970 332 q 783 421 878 421 q 745 419 758 420 q 977 508 909 438 q 1046 675 1046 578 "},"ŕ":{"ha":699,"x_min":49,"x_max":686,"o":"m 589 925 l 298 925 l 231 715 l 447 715 l 589 925 m 488 313 q 482 261 488 294 l 603 249 q 686 479 686 349 q 648 609 686 557 q 540 661 610 661 q 429 604 469 661 q 387 449 388 547 l 387 427 l 325 647 l 49 647 l 49 0 l 410 0 l 410 170 q 421 323 410 279 q 460 368 432 368 q 488 313 488 368 "},"Ŗ":{"ha":1109,"x_min":56,"x_max":1103,"o":"m 692 -83 l 410 -83 l 410 -262 l 553 -262 q 412 -339 541 -331 l 421 -411 q 692 -222 692 -407 l 692 -83 m 557 509 l 431 509 l 431 663 l 571 663 q 645 642 619 663 q 671 587 671 622 q 640 530 671 552 q 557 509 610 509 m 1046 675 q 939 857 1046 789 q 616 925 833 925 l 56 925 l 56 0 l 431 0 l 431 355 l 511 355 q 567 311 550 356 q 608 163 579 270 q 686 0 637 57 l 1103 0 q 1021 140 1046 63 q 997 228 1013 168 q 924 376 970 332 q 783 421 878 421 q 745 419 758 420 q 977 508 909 438 q 1046 675 1046 578 "},"ŗ":{"ha":699,"x_min":49,"x_max":686,"o":"m 370 -83 l 87 -83 l 87 -262 l 231 -262 q 90 -339 219 -331 l 98 -411 q 370 -222 370 -407 l 370 -83 m 488 313 q 482 261 488 294 l 603 249 q 686 479 686 349 q 648 609 686 557 q 540 661 610 661 q 429 604 469 661 q 387 449 388 547 l 387 427 l 325 647 l 49 647 l 49 0 l 410 0 l 410 170 q 421 323 410 279 q 460 368 432 368 q 488 313 488 368 "},"Ř":{"ha":1109,"x_min":56,"x_max":1103,"o":"m 806 1149 l 568 1149 l 532 1057 l 497 1149 l 260 1149 l 359 986 l 703 986 l 806 1149 m 557 509 l 431 509 l 431 663 l 571 663 q 645 642 619 663 q 671 587 671 622 q 640 530 671 552 q 557 509 610 509 m 1046 675 q 939 857 1046 789 q 616 925 833 925 l 56 925 l 56 0 l 431 0 l 431 355 l 511 355 q 567 311 550 356 q 608 163 579 270 q 686 0 637 57 l 1103 0 q 1021 140 1046 63 q 997 228 1013 168 q 924 376 970 332 q 783 421 878 421 q 745 419 758 420 q 977 508 909 438 q 1046 675 1046 578 "},"ř":{"ha":699,"x_min":49,"x_max":686,"o":"m 627 925 l 403 925 l 367 800 l 332 925 l 109 925 l 208 707 l 524 707 l 627 925 m 488 313 q 482 261 488 294 l 603 249 q 686 479 686 349 q 648 609 686 557 q 540 661 610 661 q 429 604 469 661 q 387 449 388 547 l 387 427 l 325 647 l 49 647 l 49 0 l 410 0 l 410 170 q 421 323 410 279 q 460 368 432 368 q 488 313 488 368 "},"Ś":{"ha":997,"x_min":28,"x_max":966,"o":"m 760 1158 l 446 1158 l 389 986 l 624 986 l 760 1158 m 966 301 q 879 496 966 425 q 591 610 791 568 q 460 644 489 631 q 432 681 432 658 q 500 714 432 714 q 868 624 675 714 l 953 828 q 749 910 867 879 q 510 942 631 941 q 168 867 279 943 q 57 657 57 791 q 137 445 57 524 q 412 328 217 366 q 559 291 526 304 q 591 254 591 278 q 521 215 591 215 q 129 322 319 215 l 28 122 q 253 19 125 56 q 511 -17 380 -18 q 852 68 739 -17 q 966 301 966 153 "},"ś":{"ha":713,"x_min":22,"x_max":694,"o":"m 627 925 l 336 925 l 268 715 l 485 715 l 627 925 m 648 342 q 494 418 602 389 q 414 441 431 435 q 399 460 399 449 q 434 476 399 476 q 528 461 469 477 q 627 421 586 445 l 690 579 q 389 661 557 661 q 136 603 221 661 q 52 450 52 545 q 108 304 52 355 q 314 220 164 254 q 347 193 347 212 q 301 171 347 171 q 195 195 256 171 q 96 248 134 218 l 22 87 q 372 -14 179 -14 q 613 49 532 -14 q 694 203 694 111 q 671 318 694 294 q 648 342 648 342 "},"Ŝ":{"ha":997,"x_min":28,"x_max":966,"o":"m 694 1149 l 351 1149 l 252 986 l 489 986 l 524 1078 l 559 986 l 798 986 l 694 1149 m 966 301 q 879 496 966 425 q 591 610 791 568 q 460 644 489 631 q 432 681 432 658 q 500 714 432 714 q 868 624 675 714 l 953 828 q 749 910 867 879 q 510 942 631 941 q 168 867 279 943 q 57 657 57 791 q 137 445 57 524 q 412 328 217 366 q 559 291 526 304 q 591 254 591 278 q 521 215 591 215 q 129 322 319 215 l 28 122 q 253 19 125 56 q 511 -17 380 -18 q 852 68 739 -17 q 966 301 966 153 "},"ŝ":{"ha":713,"x_min":22,"x_max":694,"o":"m 529 925 l 214 925 l 114 707 l 338 707 l 372 832 l 408 707 l 632 707 l 529 925 m 648 342 q 494 418 602 389 q 414 441 431 435 q 399 460 399 449 q 434 476 399 476 q 528 461 469 477 q 627 421 586 445 l 690 579 q 389 661 557 661 q 136 603 221 661 q 52 450 52 545 q 108 304 52 355 q 314 220 164 254 q 347 193 347 212 q 301 171 347 171 q 195 195 256 171 q 96 248 134 218 l 22 87 q 372 -14 179 -14 q 613 49 532 -14 q 694 203 694 111 q 671 318 694 294 q 648 342 648 342 "},"Ş":{"ha":997,"x_min":28,"x_max":966,"o":"m 693 -136 q 663 -73 693 -96 q 575 -50 632 -50 q 478 -89 518 -50 l 511 -17 q 852 68 739 -17 q 966 301 966 153 q 879 496 966 425 q 591 610 791 568 q 460 644 489 631 q 432 681 432 658 q 500 714 432 714 q 868 624 675 714 l 953 828 q 749 910 867 879 q 510 942 631 941 q 168 867 279 943 q 57 657 57 791 q 137 445 57 524 q 412 328 217 366 q 559 291 526 304 q 591 254 591 278 q 521 215 591 215 q 129 322 319 215 l 28 122 q 435 -14 195 7 l 386 -117 q 437 -114 401 -114 q 473 -140 473 -114 q 435 -165 473 -165 q 361 -150 397 -165 l 343 -204 q 518 -241 404 -241 q 693 -136 693 -242 "},"ş":{"ha":713,"x_min":22,"x_max":694,"o":"m 648 342 q 494 418 602 389 q 414 441 431 435 q 399 460 399 449 q 434 476 399 476 q 528 461 469 477 q 627 421 586 445 l 690 579 q 389 661 557 661 q 136 603 221 661 q 52 450 52 545 q 108 304 52 355 q 314 220 164 254 q 347 193 347 212 q 301 171 347 171 q 195 195 256 171 q 96 248 134 218 l 22 87 q 296 -9 147 6 l 245 -117 q 297 -114 260 -114 q 334 -139 334 -114 q 295 -165 333 -165 q 221 -150 257 -165 l 203 -204 q 378 -241 264 -241 q 553 -136 553 -242 q 522 -73 553 -96 q 435 -50 492 -50 q 338 -89 378 -50 l 372 -14 q 613 49 532 -14 q 694 203 694 111 q 671 318 694 294 q 648 342 648 342 "},"Š":{"ha":997,"x_min":28,"x_max":966,"o":"m 786 1149 l 549 1149 l 513 1057 l 478 1149 l 240 1149 l 340 986 l 684 986 l 786 1149 m 966 301 q 879 496 966 425 q 591 610 791 568 q 460 644 489 631 q 432 681 432 658 q 500 714 432 714 q 868 624 675 714 l 953 828 q 749 910 867 879 q 510 942 631 941 q 168 867 279 943 q 57 657 57 791 q 137 445 57 524 q 412 328 217 366 q 559 291 526 304 q 591 254 591 278 q 521 215 591 215 q 129 322 319 215 l 28 122 q 253 19 125 56 q 511 -17 380 -18 q 852 68 739 -17 q 966 301 966 153 "},"š":{"ha":713,"x_min":22,"x_max":694,"o":"m 635 925 l 411 925 l 375 800 l 340 925 l 117 925 l 216 707 l 532 707 l 635 925 m 648 342 q 494 418 602 389 q 414 441 431 435 q 399 460 399 449 q 434 476 399 476 q 528 461 469 477 q 627 421 586 445 l 690 579 q 389 661 557 661 q 136 603 221 661 q 52 450 52 545 q 108 304 52 355 q 314 220 164 254 q 347 193 347 212 q 301 171 347 171 q 195 195 256 171 q 96 248 134 218 l 22 87 q 372 -14 179 -14 q 613 49 532 -14 q 694 203 694 111 q 671 318 694 294 q 648 342 648 342 "},"Ţ":{"ha":975,"x_min":21,"x_max":954,"o":"m 628 -83 l 346 -83 l 346 -262 l 489 -262 q 349 -339 477 -331 l 357 -411 q 628 -222 628 -407 l 628 -83 m 954 647 l 954 925 l 21 925 l 21 647 l 300 647 l 300 0 l 675 0 l 675 647 l 954 647 "},"ţ":{"ha":589,"x_min":3,"x_max":564,"o":"m 461 -83 l 179 -83 l 179 -262 l 322 -262 q 182 -339 311 -331 l 191 -411 q 461 -222 461 -407 l 461 -83 m 79 239 q 142 49 79 111 q 345 -14 206 -14 q 564 33 483 -14 l 559 170 q 496 160 529 160 q 452 176 464 160 q 440 225 439 192 l 440 510 l 559 510 l 559 647 l 440 647 l 440 857 l 79 833 l 79 647 l 3 647 l 3 510 l 79 510 l 79 239 "},"Ť":{"ha":975,"x_min":21,"x_max":954,"o":"m 761 1149 l 524 1149 l 488 1057 l 453 1149 l 215 1149 l 315 986 l 659 986 l 761 1149 m 954 647 l 954 925 l 21 925 l 21 647 l 300 647 l 300 0 l 675 0 l 675 647 l 954 647 "},"ť":{"ha":733,"x_min":3,"x_max":733,"o":"m 733 1109 l 500 1109 l 500 914 l 596 914 q 509 835 584 850 l 522 760 q 682 830 631 776 q 733 989 734 884 l 733 1109 m 79 239 q 142 49 79 111 q 345 -14 206 -14 q 564 33 483 -14 l 559 170 q 496 160 529 160 q 452 176 464 160 q 440 225 439 192 l 440 510 l 559 510 l 559 647 l 440 647 l 440 857 l 79 833 l 79 647 l 3 647 l 3 510 l 79 510 l 79 239 "},"Ŧ":{"ha":975,"x_min":21,"x_max":954,"o":"m 147 323 l 300 323 l 300 0 l 675 0 l 675 323 l 828 323 l 828 488 l 675 488 l 675 647 l 954 647 l 954 925 l 21 925 l 21 647 l 300 647 l 300 488 l 147 488 l 147 323 "},"ŧ":{"ha":606,"x_min":21,"x_max":582,"o":"m 21 290 l 97 290 l 97 239 q 161 49 98 111 q 362 -14 224 -14 q 582 33 500 -14 l 578 170 q 514 160 547 160 q 470 176 481 160 q 458 225 458 192 l 458 290 l 578 290 l 578 428 l 458 428 l 458 510 l 578 510 l 578 647 l 458 647 l 458 857 l 97 833 l 97 647 l 21 647 l 21 510 l 97 510 l 97 428 l 21 428 l 21 290 "},"Ũ":{"ha":1033,"x_min":49,"x_max":985,"o":"m 785 1092 q 717 1214 785 1169 l 640 1178 q 653 1153 652 1167 q 629 1131 653 1131 q 530 1160 605 1131 q 401 1190 456 1190 q 312 1160 346 1190 q 278 1084 278 1129 q 351 962 277 1015 l 412 1000 q 404 1019 404 1011 q 427 1035 404 1035 q 534 1006 450 1035 q 667 977 618 977 q 751 1010 716 977 q 785 1092 785 1043 m 985 372 l 985 925 l 640 925 l 640 368 q 616 281 640 311 q 532 250 591 250 q 448 281 472 250 q 424 368 423 311 l 424 925 l 49 925 l 49 372 q 112 151 49 243 q 534 -17 227 -17 q 847 64 734 -17 q 985 372 985 162 "},"ũ":{"ha":903,"x_min":46,"x_max":854,"o":"m 703 835 q 636 960 703 917 l 557 926 q 571 899 570 914 q 548 876 571 876 q 457 906 525 876 q 334 936 389 936 q 243 901 278 936 q 210 812 210 867 q 278 688 210 735 l 353 714 q 339 746 339 730 q 365 771 339 771 q 465 742 391 771 q 574 713 538 713 q 669 748 636 713 q 703 835 703 783 m 46 647 l 46 314 q 281 -14 46 -14 q 434 41 372 -14 q 524 186 496 96 l 578 0 l 854 0 l 854 647 l 493 647 l 493 345 q 444 249 493 249 q 407 296 407 248 l 407 647 l 46 647 "},"Ū":{"ha":1033,"x_min":49,"x_max":985,"o":"m 822 993 l 822 1153 l 257 1153 l 257 993 l 822 993 m 985 372 l 985 925 l 640 925 l 640 368 q 616 281 640 311 q 532 250 591 250 q 448 281 472 250 q 424 368 423 311 l 424 925 l 49 925 l 49 372 q 112 151 49 243 q 534 -17 227 -17 q 847 64 734 -17 q 985 372 985 162 "},"ū":{"ha":903,"x_min":46,"x_max":854,"o":"m 729 726 l 729 904 l 192 904 l 192 726 l 729 726 m 46 647 l 46 314 q 281 -14 46 -14 q 434 41 372 -14 q 524 186 496 96 l 578 0 l 854 0 l 854 647 l 493 647 l 493 345 q 444 249 493 249 q 407 296 407 248 l 407 647 l 46 647 "},"Ŭ":{"ha":1033,"x_min":49,"x_max":985,"o":"m 829 1095 q 810 1147 829 1120 l 575 1147 q 586 1114 586 1131 q 542 1079 587 1079 q 497 1114 497 1079 q 509 1147 498 1131 l 273 1147 q 254 1095 254 1120 q 337 1016 254 1043 q 542 989 420 989 q 747 1016 664 989 q 829 1095 829 1043 m 985 372 l 985 925 l 640 925 l 640 368 q 616 281 640 311 q 532 250 591 250 q 448 281 472 250 q 424 368 423 311 l 424 925 l 49 925 l 49 372 q 112 151 49 243 q 534 -17 227 -17 q 847 64 734 -17 q 985 372 985 162 "},"ŭ":{"ha":903,"x_min":46,"x_max":854,"o":"m 713 840 q 682 925 713 882 l 503 925 q 500 846 531 871 q 456 832 484 832 q 411 846 427 832 q 395 880 395 859 q 408 925 395 900 l 229 925 q 199 840 199 882 q 264 739 198 779 q 456 700 331 700 q 647 740 581 700 q 713 840 713 779 m 46 647 l 46 314 q 281 -14 46 -14 q 434 41 372 -14 q 524 186 496 96 l 578 0 l 854 0 l 854 647 l 493 647 l 493 345 q 444 249 493 249 q 407 296 407 248 l 407 647 l 46 647 "},"Ů":{"ha":1033,"x_min":49,"x_max":985,"o":"m 571 1097 q 559 1065 571 1077 q 529 1053 547 1053 q 499 1065 511 1053 q 488 1097 488 1078 q 499 1129 488 1117 q 529 1141 511 1141 q 559 1129 547 1141 q 571 1097 571 1117 m 658 1195 q 529 1230 604 1230 q 401 1194 454 1230 q 347 1097 347 1158 q 400 1000 347 1036 q 529 964 453 964 q 658 1000 604 964 q 711 1097 711 1036 q 658 1195 711 1158 m 985 372 l 985 925 l 640 925 l 640 368 q 616 281 640 311 q 532 250 591 250 q 448 281 472 250 q 424 368 423 311 l 424 925 l 49 925 l 49 372 q 112 151 49 243 q 534 -17 227 -17 q 847 64 734 -17 q 985 372 985 162 "},"ů":{"ha":903,"x_min":46,"x_max":854,"o":"m 486 799 q 456 787 474 787 q 426 799 438 787 q 414 831 414 811 q 426 863 414 850 q 456 875 437 875 q 486 863 474 875 q 497 831 497 850 q 491 805 497 811 q 486 799 486 799 m 637 831 q 585 928 637 892 q 456 964 532 964 q 327 928 380 964 q 273 830 273 891 q 327 733 273 769 q 456 697 381 697 q 584 734 530 697 q 637 831 637 770 m 46 647 l 46 314 q 281 -14 46 -14 q 434 41 372 -14 q 524 186 496 96 l 578 0 l 854 0 l 854 647 l 493 647 l 493 345 q 444 249 493 249 q 407 296 407 248 l 407 647 l 46 647 "},"Ű":{"ha":1034,"x_min":49,"x_max":985,"o":"m 939 1158 l 625 1158 l 561 986 l 803 986 l 939 1158 m 561 1158 l 275 1158 l 218 986 l 494 986 l 561 1158 m 985 372 l 985 925 l 640 925 l 640 368 q 616 281 640 311 q 532 250 591 250 q 448 281 472 250 q 424 368 423 311 l 424 925 l 49 925 l 49 372 q 112 151 49 243 q 534 -17 227 -17 q 847 64 734 -17 q 985 372 985 162 "},"ű":{"ha":909,"x_min":46,"x_max":854,"o":"m 821 925 l 542 925 l 493 715 l 750 715 l 821 925 m 482 925 l 225 925 l 178 715 l 433 715 l 482 925 m 46 647 l 46 314 q 281 -14 46 -14 q 434 41 372 -14 q 524 186 496 96 l 578 0 l 854 0 l 854 647 l 493 647 l 493 345 q 444 249 493 249 q 407 296 407 248 l 407 647 l 46 647 "},"Ų":{"ha":1033,"x_min":49,"x_max":985,"o":"m 586 -241 q 732 -214 662 -241 l 722 -160 q 679 -165 700 -165 q 632 -127 632 -165 q 800 36 632 -74 q 943 177 901 101 q 985 372 985 253 l 985 925 l 640 925 l 640 368 q 616 281 640 311 q 532 250 591 250 q 448 281 472 250 q 424 368 423 311 l 424 925 l 49 925 l 49 372 q 116 145 49 243 q 339 5 183 46 q 529 -17 425 -17 q 717 4 633 -17 q 648 -18 711 2 q 506 -74 584 -37 q 416 -165 416 -115 q 586 -241 416 -241 "},"ų":{"ha":903,"x_min":46,"x_max":854,"o":"m 605 -241 q 746 -214 684 -241 l 736 -160 q 693 -165 713 -165 q 646 -122 646 -165 q 746 0 646 -56 l 854 0 l 854 647 l 493 647 l 493 345 q 444 249 493 249 q 407 296 407 248 l 407 647 l 46 647 l 46 314 q 281 -14 46 -14 q 434 41 372 -14 q 524 186 496 96 l 578 0 l 718 0 q 467 -91 538 -31 q 431 -155 431 -121 q 605 -241 430 -241 "},"Ŵ":{"ha":1516,"x_min":7,"x_max":1510,"o":"m 937 1149 l 595 1149 l 494 986 l 732 986 l 766 1078 l 803 986 l 1040 986 l 937 1149 m 953 925 l 623 925 l 503 493 l 389 925 l 7 925 l 279 0 l 614 0 l 766 490 l 903 0 l 1249 0 l 1510 925 l 1200 925 l 1074 493 l 953 925 "},"ŵ":{"ha":1230,"x_min":-7,"x_max":1242,"o":"m 781 925 l 465 925 l 366 707 l 589 707 l 624 832 l 660 707 l 884 707 l 781 925 m 536 0 l 624 278 l 713 0 l 1026 0 l 1242 647 l 914 647 l 857 292 l 772 647 l 484 647 l 392 292 l 328 647 l -7 647 l 208 0 l 536 0 "},"Ŷ":{"ha":1030,"x_min":7,"x_max":1023,"o":"m 707 1149 l 364 1149 l 264 986 l 501 986 l 536 1078 l 572 986 l 810 986 l 707 1149 m 701 0 l 701 325 l 1023 925 l 676 925 l 536 623 l 400 925 l 7 925 l 326 326 l 326 0 l 701 0 "},"ŷ":{"ha":814,"x_min":-7,"x_max":828,"o":"m 587 925 l 272 925 l 172 707 l 396 707 l 431 832 l 467 707 l 690 707 l 587 925 m 420 -228 q 504 -178 469 -213 q 561 -100 538 -142 q 608 14 583 -58 l 828 647 l 530 647 l 427 271 l 326 647 l -7 647 l 260 -22 q 174 -78 243 -78 q 114 -71 142 -77 l 109 -205 q 285 -241 197 -241 q 420 -228 373 -241 "},"Ÿ":{"ha":1030,"x_min":7,"x_max":1023,"o":"m 500 993 l 500 1173 l 239 1173 l 239 993 l 500 993 m 836 993 l 836 1173 l 570 1173 l 570 993 l 836 993 m 701 0 l 701 325 l 1023 925 l 676 925 l 536 623 l 400 925 l 7 925 l 326 326 l 326 0 l 701 0 "},"Ź":{"ha":987,"x_min":49,"x_max":943,"o":"m 750 1158 l 436 1158 l 379 986 l 614 986 l 750 1158 m 943 0 l 943 236 l 539 236 l 926 743 l 926 925 l 64 925 l 64 692 l 456 692 l 49 170 l 49 0 l 943 0 "},"ź":{"ha":758,"x_min":41,"x_max":722,"o":"m 633 925 l 343 925 l 275 715 l 492 715 l 633 925 m 43 453 l 328 453 l 41 138 l 41 0 l 722 0 l 722 195 l 501 195 l 715 453 l 715 647 l 43 647 l 43 453 "},"Ż":{"ha":987,"x_min":49,"x_max":943,"o":"m 692 996 l 692 1214 l 330 1214 l 330 996 l 692 996 m 943 0 l 943 236 l 539 236 l 926 743 l 926 925 l 64 925 l 64 692 l 456 692 l 49 170 l 49 0 l 943 0 "},"ż":{"ha":758,"x_min":41,"x_max":722,"o":"m 570 707 l 570 925 l 208 925 l 208 707 l 570 707 m 43 453 l 328 453 l 41 138 l 41 0 l 722 0 l 722 195 l 501 195 l 715 453 l 715 647 l 43 647 l 43 453 "},"Ž":{"ha":987,"x_min":49,"x_max":943,"o":"m 785 1149 l 547 1149 l 511 1057 l 476 1149 l 239 1149 l 339 986 l 682 986 l 785 1149 m 943 0 l 943 236 l 539 236 l 926 743 l 926 925 l 64 925 l 64 692 l 456 692 l 49 170 l 49 0 l 943 0 "},"ž":{"ha":758,"x_min":41,"x_max":722,"o":"m 652 925 l 428 925 l 392 800 l 357 925 l 134 925 l 233 707 l 549 707 l 652 925 m 43 453 l 328 453 l 41 138 l 41 0 l 722 0 l 722 195 l 501 195 l 715 453 l 715 647 l 43 647 l 43 453 "},"ƒ":{"ha":728,"x_min":22,"x_max":707,"o":"m 232 -241 q 430 -180 363 -241 q 507 11 496 -118 l 543 429 l 647 429 l 659 567 l 555 567 l 568 704 q 584 754 571 739 q 676 761 608 781 l 707 888 q 487 943 620 943 q 285 880 354 943 q 205 690 216 818 l 195 567 l 107 567 l 96 429 l 182 429 l 144 -3 q 129 -53 140 -38 q 92 -68 118 -68 q 43 -64 66 -68 l 22 -191 q 232 -241 100 -241 "},"Ǻ":{"ha":1137,"x_min":14,"x_max":1131,"o":"m 771 1341 l 507 1341 l 463 1207 l 697 1207 l 771 1341 m 611 1028 q 568 979 612 979 q 525 1028 525 979 q 568 1076 525 1077 q 611 1028 611 1077 m 528 647 l 631 326 l 425 326 l 528 647 m 701 1133 q 568 1172 646 1172 q 435 1132 492 1172 q 379 1029 379 1092 q 436 925 379 967 l 355 925 l 14 0 l 321 0 l 361 129 l 693 129 l 734 0 l 1131 0 l 787 925 l 700 925 q 757 1030 757 968 q 701 1133 757 1092 "},"ǻ":{"ha":890,"x_min":32,"x_max":873,"o":"m 629 1146 l 399 1146 l 350 997 l 567 997 l 629 1146 m 486 831 q 475 799 487 811 q 444 787 463 787 q 414 799 426 787 q 403 831 403 811 q 414 863 403 850 q 444 875 426 875 q 475 863 463 875 q 486 831 487 850 m 627 831 q 573 928 627 892 q 445 964 519 964 q 316 928 370 964 q 262 830 262 891 q 316 733 263 769 q 444 697 369 697 q 573 734 519 697 q 627 831 627 770 m 444 187 q 404 139 444 138 q 366 175 366 139 q 444 229 365 220 l 444 187 m 221 -14 q 380 17 311 -14 q 484 111 449 47 q 556 20 504 53 q 669 -14 608 -14 q 787 0 729 -15 q 873 43 846 15 l 873 160 q 833 150 858 151 q 804 193 804 151 l 804 395 q 712 597 804 534 q 435 661 620 661 q 152 603 251 661 q 53 449 53 545 q 82 342 53 397 l 395 408 q 385 452 385 433 q 414 489 385 489 q 443 452 443 489 l 443 328 q 323 335 374 335 q 32 164 32 335 q 82 34 32 81 q 221 -14 132 -14 "},"Ǽ":{"ha":1483,"x_min":14,"x_max":1435,"o":"m 857 1158 l 543 1158 l 486 986 l 721 986 l 857 1158 m 528 647 l 631 326 l 425 326 l 528 647 m 1426 925 l 355 925 l 14 0 l 321 0 l 361 129 l 693 129 l 734 0 l 1435 0 l 1435 249 l 1038 249 l 990 376 l 1335 376 l 1335 557 l 924 557 l 879 676 l 1426 676 l 1426 925 "},"ǽ":{"ha":1217,"x_min":32,"x_max":1187,"o":"m 787 925 l 497 925 l 429 715 l 646 715 l 787 925 m 366 175 q 452 231 366 220 q 463 187 453 210 q 406 138 447 138 q 366 175 366 138 m 848 489 q 889 414 888 489 q 886 378 889 406 l 804 378 l 804 385 q 848 489 804 489 m 860 174 q 822 195 836 174 q 804 286 808 217 l 1178 286 q 1187 397 1187 335 q 1158 514 1187 458 q 1076 601 1128 570 q 836 661 975 661 q 593 570 663 661 q 386 661 530 661 q 136 607 217 661 q 54 461 54 553 q 82 342 54 406 l 395 408 q 386 449 386 431 q 422 489 387 489 q 458 444 458 489 q 450 395 458 426 q 443 323 442 363 q 317 330 371 330 q 32 164 32 331 q 82 34 32 81 q 220 -14 132 -14 q 377 8 308 -14 q 514 93 446 31 q 640 14 558 41 q 822 -14 722 -14 q 1183 164 1183 -14 q 1178 212 1183 190 l 893 239 q 897 215 897 227 q 860 174 897 174 "},"Ǿ":{"ha":1122,"x_min":25,"x_max":1097,"o":"m 812 1158 l 498 1158 l 441 986 l 676 986 l 812 1158 m 708 463 q 673 310 708 370 q 561 250 639 250 q 447 313 483 250 l 701 536 q 708 463 708 497 m 414 463 q 448 615 414 555 q 559 675 483 675 q 675 612 636 675 l 421 387 q 414 463 414 427 m 144 144 l 25 39 l 75 -17 l 200 93 q 561 -17 341 -17 q 956 122 814 -17 q 1097 456 1097 262 q 978 781 1097 650 l 1097 886 l 1048 942 l 922 831 q 561 942 779 942 q 167 803 309 942 q 25 469 25 663 q 144 144 25 275 "},"ǿ":{"ha":858,"x_min":17,"x_max":842,"o":"m 672 925 l 382 925 l 314 715 l 530 715 l 672 925 m 378 323 q 391 433 378 407 q 426 460 403 460 q 460 447 449 460 q 476 396 472 435 l 378 315 l 378 323 m 481 323 q 468 214 480 240 q 432 187 456 187 q 396 201 408 187 q 380 253 384 214 l 481 332 l 481 323 m 751 550 l 840 621 l 808 661 l 711 583 q 422 661 602 661 q 129 570 241 661 q 17 332 17 479 q 106 97 17 186 l 17 26 l 49 -14 l 146 64 q 435 -14 253 -14 q 729 77 616 -14 q 842 315 842 168 q 751 550 842 463 "},"Ș":{"ha":997,"x_min":28,"x_max":966,"o":"m 664 -83 l 382 -83 l 382 -262 l 525 -262 q 385 -339 513 -331 l 393 -411 q 664 -222 664 -407 l 664 -83 m 966 301 q 879 496 966 425 q 591 610 791 568 q 460 644 489 631 q 432 681 432 658 q 500 714 432 714 q 868 624 675 714 l 953 828 q 749 910 867 879 q 510 942 631 941 q 168 867 279 943 q 57 657 57 791 q 137 445 57 524 q 412 328 217 366 q 559 291 526 304 q 591 254 591 278 q 521 215 591 215 q 129 322 319 215 l 28 122 q 253 19 125 56 q 511 -17 380 -18 q 852 68 739 -17 q 966 301 966 153 "},"ș":{"ha":713,"x_min":22,"x_max":694,"o":"m 515 -83 l 233 -83 l 233 -262 l 376 -262 q 236 -339 365 -331 l 244 -411 q 515 -222 515 -407 l 515 -83 m 648 342 q 494 418 602 389 q 414 441 431 435 q 399 460 399 449 q 434 476 399 476 q 528 461 469 477 q 627 421 586 445 l 690 579 q 389 661 557 661 q 136 603 221 661 q 52 450 52 545 q 108 304 52 355 q 314 220 164 254 q 347 193 347 212 q 301 171 347 171 q 195 195 256 171 q 96 248 134 218 l 22 87 q 372 -14 179 -14 q 613 49 532 -14 q 694 203 694 111 q 671 318 694 294 q 648 342 648 342 "},"ˆ":{"ha":615,"x_min":49,"x_max":567,"o":"m 464 925 l 149 925 l 49 707 l 272 707 l 307 832 l 343 707 l 567 707 l 464 925 "},"ˇ":{"ha":615,"x_min":49,"x_max":567,"o":"m 567 925 l 343 925 l 307 800 l 272 925 l 49 925 l 149 707 l 464 707 l 567 925 "},"˘":{"ha":611,"x_min":49,"x_max":562,"o":"m 562 840 q 532 925 562 882 l 353 925 q 351 846 382 871 q 306 832 335 832 q 260 846 277 832 q 258 925 229 871 l 79 925 q 49 840 49 882 q 115 739 49 779 q 306 700 182 700 q 496 740 431 700 q 562 840 562 779 "},"˙":{"ha":458,"x_min":49,"x_max":410,"o":"m 410 707 l 410 925 l 49 925 l 49 707 l 410 707 "},"˚":{"ha":460,"x_min":49,"x_max":412,"o":"m 260 799 q 231 787 249 787 q 201 799 212 787 q 189 831 189 811 q 201 863 189 850 q 231 875 212 875 q 260 863 249 875 q 272 831 272 850 q 266 805 272 811 q 260 799 260 799 m 412 831 q 359 928 412 892 q 231 964 305 964 q 102 928 156 964 q 49 830 49 891 q 102 733 49 769 q 231 697 156 697 q 359 734 305 697 q 412 831 412 770 "},"˛":{"ha":412,"x_min":41,"x_max":357,"o":"m 210 -241 q 357 -214 294 -241 l 347 -160 q 304 -165 325 -165 q 257 -122 257 -165 q 357 0 257 -56 l 329 0 q 96 -64 195 0 q 41 -142 41 -99 q 210 -241 41 -241 "},"˜":{"ha":593,"x_min":50,"x_max":543,"o":"m 414 713 q 510 748 477 713 q 543 835 543 783 q 476 960 543 917 l 397 926 q 411 899 411 914 q 385 876 411 876 q 297 906 366 876 q 173 936 228 936 q 84 901 118 936 q 50 812 50 867 q 118 688 50 735 l 193 714 q 179 746 179 730 q 205 771 179 771 q 305 742 232 771 q 414 713 378 713 "},"˝":{"ha":744,"x_min":56,"x_max":699,"o":"m 699 925 l 419 925 l 371 715 l 628 715 l 699 925 m 359 925 l 103 925 l 56 715 l 311 715 l 359 925 "},"̦":{"ha":494,"x_min":60,"x_max":342,"o":"m 342 -83 l 60 -83 l 60 -262 l 203 -262 q 62 -339 191 -331 l 71 -411 q 342 -222 342 -407 l 342 -83 "},"Ω":{"ha":1164,"x_min":46,"x_max":1118,"o":"m 1089 0 l 1089 212 l 783 94 q 1039 284 960 182 q 1118 511 1118 387 q 979 825 1118 707 q 582 941 840 941 q 184 825 323 941 q 46 511 46 708 q 125 284 45 387 q 380 94 204 182 l 75 212 l 75 0 l 530 0 l 530 182 q 465 293 488 233 q 438 388 441 353 q 435 476 435 423 q 582 675 435 675 q 729 476 729 675 q 726 388 729 423 q 699 293 722 353 q 633 182 676 233 l 633 0 l 1089 0 "},"π":{"ha":1025,"x_min":14,"x_max":1000,"o":"m 996 501 l 996 647 l 14 647 l 14 501 l 111 501 l 111 0 l 458 0 l 458 501 l 538 501 l 538 239 q 598 49 538 111 q 789 -14 658 -14 q 1000 33 921 -14 l 996 170 q 897 176 918 145 q 885 225 885 192 l 885 501 l 996 501 "},"Ẁ":{"ha":1516,"x_min":7,"x_max":1510,"o":"m 660 986 l 895 986 l 835 1158 l 542 1158 l 660 986 m 953 925 l 623 925 l 503 493 l 389 925 l 7 925 l 279 0 l 614 0 l 766 490 l 903 0 l 1249 0 l 1510 925 l 1200 925 l 1074 493 l 953 925 "},"ẁ":{"ha":1230,"x_min":-7,"x_max":1242,"o":"m 510 715 l 726 715 l 659 925 l 368 925 l 510 715 m 536 0 l 624 278 l 713 0 l 1026 0 l 1242 647 l 914 647 l 857 292 l 772 647 l 484 647 l 392 292 l 328 647 l -7 647 l 208 0 l 536 0 "},"Ẃ":{"ha":1516,"x_min":7,"x_max":1510,"o":"m 1043 1158 l 729 1158 l 672 986 l 907 986 l 1043 1158 m 953 925 l 623 925 l 503 493 l 389 925 l 7 925 l 279 0 l 614 0 l 766 490 l 903 0 l 1249 0 l 1510 925 l 1200 925 l 1074 493 l 953 925 "},"ẃ":{"ha":1230,"x_min":-7,"x_max":1242,"o":"m 890 925 l 600 925 l 532 715 l 749 715 l 890 925 m 536 0 l 624 278 l 713 0 l 1026 0 l 1242 647 l 914 647 l 857 292 l 772 647 l 484 647 l 392 292 l 328 647 l -7 647 l 208 0 l 536 0 "},"Ẅ":{"ha":1516,"x_min":7,"x_max":1510,"o":"m 729 993 l 729 1173 l 468 1173 l 468 993 l 729 993 m 1065 993 l 1065 1173 l 799 1173 l 799 993 l 1065 993 m 953 925 l 623 925 l 503 493 l 389 925 l 7 925 l 279 0 l 614 0 l 766 490 l 903 0 l 1249 0 l 1510 925 l 1200 925 l 1074 493 l 953 925 "},"ẅ":{"ha":1230,"x_min":-7,"x_max":1242,"o":"m 586 720 l 586 925 l 345 925 l 345 720 l 586 720 m 900 720 l 900 925 l 653 925 l 653 720 l 900 720 m 536 0 l 624 278 l 713 0 l 1026 0 l 1242 647 l 914 647 l 857 292 l 772 647 l 484 647 l 392 292 l 328 647 l -7 647 l 208 0 l 536 0 "},"Ỳ":{"ha":1030,"x_min":7,"x_max":1023,"o":"m 411 986 l 646 986 l 586 1158 l 293 1158 l 411 986 m 701 0 l 701 325 l 1023 925 l 676 925 l 536 623 l 400 925 l 7 925 l 326 326 l 326 0 l 701 0 "},"ỳ":{"ha":814,"x_min":-7,"x_max":828,"o":"m 315 715 l 532 715 l 464 925 l 174 925 l 315 715 m 420 -228 q 504 -178 469 -213 q 561 -100 538 -142 q 608 14 583 -58 l 828 647 l 530 647 l 427 271 l 326 647 l -7 647 l 260 -22 q 174 -78 243 -78 q 114 -71 142 -77 l 109 -205 q 285 -241 197 -241 q 420 -228 373 -241 "},"–":{"ha":882,"x_min":69,"x_max":812,"o":"m 812 253 l 812 488 l 69 488 l 69 253 l 812 253 "},"—":{"ha":1201,"x_min":69,"x_max":1132,"o":"m 1132 253 l 1132 488 l 69 488 l 69 253 l 1132 253 "},"‘":{"ha":416,"x_min":41,"x_max":361,"o":"m 222 725 q 252 808 222 779 q 353 846 281 838 l 339 939 q 43 677 43 933 l 41 460 l 361 460 l 361 725 l 222 725 "},"’":{"ha":416,"x_min":56,"x_max":375,"o":"m 195 660 q 165 576 195 606 q 64 539 136 547 l 78 446 q 374 707 374 451 l 375 925 l 56 925 l 56 660 l 195 660 "},"‚":{"ha":414,"x_min":49,"x_max":366,"o":"m 366 293 l 49 293 l 49 0 l 186 0 q 52 -147 186 -134 l 62 -236 q 284 -166 203 -236 q 366 36 366 -96 l 366 293 "},"“":{"ha":814,"x_min":41,"x_max":758,"o":"m 222 725 q 252 808 222 779 q 353 846 281 838 l 339 939 q 43 677 43 933 l 41 460 l 361 460 l 361 725 l 222 725 m 619 725 q 648 808 618 779 q 750 846 678 838 l 736 939 q 440 677 440 933 l 439 460 l 758 460 l 758 725 l 619 725 "},"”":{"ha":814,"x_min":56,"x_max":772,"o":"m 591 660 q 562 576 591 606 q 461 539 533 547 l 475 446 q 771 707 771 451 l 772 925 l 453 925 l 453 660 l 591 660 m 195 660 q 165 576 195 606 q 64 539 136 547 l 78 446 q 374 707 374 451 l 375 925 l 56 925 l 56 660 l 195 660 "},"„":{"ha":814,"x_min":49,"x_max":762,"o":"m 762 293 l 446 293 l 446 0 l 583 0 q 449 -147 584 -134 l 460 -236 q 681 -166 600 -236 q 762 36 762 -96 l 762 293 m 366 293 l 49 293 l 49 0 l 186 0 q 52 -147 186 -134 l 62 -236 q 284 -166 203 -236 q 366 36 366 -96 l 366 293 "},"†":{"ha":659,"x_min":56,"x_max":604,"o":"m 164 372 l 307 -195 l 353 -195 l 496 372 l 350 623 l 604 498 l 604 799 l 350 675 l 496 925 l 164 925 l 311 675 l 56 799 l 56 498 l 311 623 l 164 372 "},"‡":{"ha":659,"x_min":56,"x_max":604,"o":"m 604 498 l 604 799 l 350 675 l 496 925 l 164 925 l 311 675 l 56 799 l 56 498 l 311 623 l 164 372 l 164 358 l 311 109 l 56 232 l 56 -68 l 311 56 l 164 -195 l 496 -195 l 350 56 l 604 -68 l 604 232 l 350 109 l 496 358 l 496 372 l 350 623 l 604 498 "},"•":{"ha":581,"x_min":41,"x_max":539,"o":"m 41 390 q 114 214 41 287 q 290 141 187 141 q 466 214 393 141 q 539 390 539 288 q 467 566 540 492 q 290 639 393 639 q 115 566 187 639 q 41 390 41 493 "},"…":{"ha":1241,"x_min":49,"x_max":1193,"o":"m 1193 0 l 1193 293 l 876 293 l 876 0 l 1193 0 m 779 0 l 779 293 l 463 293 l 463 0 l 779 0 m 366 0 l 366 293 l 49 293 l 49 0 l 366 0 "},"‰":{"ha":1887,"x_min":21,"x_max":1867,"o":"m 1636 240 q 1628 157 1636 180 q 1594 133 1619 133 q 1561 157 1569 133 q 1553 240 1553 180 q 1561 324 1553 300 q 1594 349 1569 349 q 1628 324 1619 349 q 1636 240 1636 300 m 1867 240 q 1793 426 1867 357 q 1594 496 1719 495 q 1396 427 1470 496 q 1322 240 1322 357 q 1394 55 1322 123 q 1595 -14 1466 -14 q 1796 55 1724 -14 q 1867 240 1868 123 m 327 572 q 293 549 319 549 q 260 572 268 549 q 252 656 252 596 q 260 739 252 715 q 293 764 268 764 q 327 740 319 764 q 335 656 335 715 q 331 584 335 596 q 327 572 327 572 m 566 656 q 492 842 566 772 q 293 911 418 911 q 94 842 168 911 q 21 655 21 772 q 92 470 21 538 q 293 401 164 401 q 494 471 422 401 q 566 656 566 540 m 1034 157 q 1000 133 1025 133 q 966 157 974 133 q 958 240 958 180 q 967 324 959 300 q 1000 349 975 349 q 1034 324 1025 349 q 1042 240 1042 300 q 1034 157 1042 180 m 964 897 l 793 897 l 332 0 l 503 0 l 964 897 m 1199 426 q 1000 496 1126 495 q 802 426 876 495 q 728 240 728 357 q 800 55 728 123 q 1000 -14 871 -14 q 1200 55 1128 -14 q 1272 240 1272 123 q 1236 391 1272 357 q 1199 426 1199 426 "},"‹":{"ha":553,"x_min":46,"x_max":490,"o":"m 490 408 l 490 618 l 46 416 l 46 231 l 490 29 l 490 239 l 269 323 l 490 408 "},"›":{"ha":553,"x_min":62,"x_max":507,"o":"m 283 323 l 62 239 l 62 29 l 507 231 l 507 416 l 62 618 l 62 408 l 283 323 "},"⁄":{"ha":671,"x_min":-21,"x_max":692,"o":"m 692 925 l 529 925 l -21 0 l 143 0 l 692 925 "},"€":{"ha":1101,"x_min":35,"x_max":1057,"o":"m 672 345 l 672 418 l 510 418 q 509 449 509 428 l 509 479 l 672 479 l 672 553 l 519 553 q 656 673 549 673 q 747 625 713 674 q 782 507 782 576 l 1038 558 q 928 812 1035 714 q 627 911 821 911 q 312 812 433 911 q 160 553 191 713 l 35 553 l 35 479 l 150 479 l 150 418 l 35 418 l 35 345 l 158 345 q 311 83 189 180 q 625 -14 434 -14 q 929 82 817 -14 q 1057 322 1042 178 l 803 392 q 659 224 774 224 q 522 345 554 224 l 672 345 "},"™":{"ha":905,"x_min":39,"x_max":864,"o":"m 370 815 l 370 925 l 39 925 l 39 815 l 132 815 l 132 597 l 273 597 l 273 815 l 370 815 m 864 597 l 864 925 l 671 925 l 625 782 l 581 925 l 416 925 l 416 597 l 529 597 l 529 743 l 578 597 l 671 597 l 718 743 l 718 597 l 864 597 "},"∂":{"ha":977,"x_min":36,"x_max":939,"o":"m 475 378 q 528 313 528 378 q 505 237 528 272 q 447 201 483 201 q 395 260 395 201 q 418 348 395 318 q 475 378 441 378 m 415 -14 q 642 29 541 -14 q 806 146 742 72 q 939 518 939 298 q 831 810 940 687 q 682 906 776 871 q 465 942 589 941 q 134 822 269 941 l 218 676 q 372 728 289 728 q 564 509 564 728 q 553 386 564 456 q 484 503 539 461 q 343 546 428 545 q 113 465 191 546 q 36 264 36 383 q 134 65 37 144 q 415 -14 231 -14 "},"∆":{"ha":1012,"x_min":35,"x_max":978,"o":"m 505 682 l 604 207 l 407 207 l 505 682 m 711 925 l 301 925 l 35 0 l 978 0 l 711 925 "},"∏":{"ha":1098,"x_min":28,"x_max":1071,"o":"m 946 -139 l 946 768 l 1071 768 l 1071 925 l 28 925 l 28 768 l 153 768 l 153 -139 l 500 -139 l 500 768 l 599 768 l 599 -139 l 946 -139 "},"∑":{"ha":804,"x_min":49,"x_max":774,"o":"m 56 -139 l 774 -139 l 774 18 l 437 18 l 708 404 l 439 768 l 750 768 l 750 925 l 49 925 l 49 768 l 319 400 l 56 18 l 56 -139 "},"−":{"ha":651,"x_min":62,"x_max":589,"o":"m 589 253 l 589 488 l 62 488 l 62 253 l 589 253 "},"√":{"ha":1019,"x_min":41,"x_max":981,"o":"m 614 1000 l 463 261 l 314 602 l 41 486 l 267 0 l 714 0 l 981 1000 l 614 1000 "},"∞":{"ha":1269,"x_min":28,"x_max":1242,"o":"m 369 433 q 441 452 395 452 q 574 383 524 451 q 441 315 524 315 q 369 334 395 315 q 343 383 343 353 q 356 423 343 414 q 369 433 369 433 m 901 334 q 828 315 875 315 q 696 383 746 315 q 828 452 746 452 q 901 433 875 452 q 926 383 926 414 q 913 343 926 353 q 901 334 901 334 m 28 383 q 109 175 28 252 q 329 98 189 98 q 499 146 419 99 q 628 273 579 194 q 769 147 688 196 q 940 98 850 98 q 1161 175 1080 98 q 1242 382 1242 252 q 1161 591 1242 513 q 940 668 1080 668 q 764 623 848 669 q 627 497 680 578 q 329 668 494 668 q 109 591 189 669 q 28 383 28 514 "},"∫":{"ha":570,"x_min":-31,"x_max":550,"o":"m 440 700 q 490 765 440 765 q 546 755 515 765 l 550 892 q 338 939 469 939 q 142 876 206 939 q 79 686 79 814 l 79 -3 q 67 -52 79 -35 q 28 -68 56 -68 q -26 -60 1 -68 l -31 -195 q 186 -241 57 -241 q 377 -179 315 -241 q 440 11 440 -117 l 440 700 "},"≈":{"ha":858,"x_min":56,"x_max":810,"o":"m 265 117 q 296 112 280 117 q 389 65 313 106 q 562 24 465 24 q 721 78 658 24 q 810 204 783 132 l 720 302 q 559 227 652 227 q 509 233 528 227 q 456 257 490 240 q 347 307 421 274 q 262 319 318 319 q 153 281 205 319 q 75 180 100 241 l 157 72 q 265 117 220 117 m 142 545 q 56 446 87 505 l 136 332 q 199 377 172 362 q 264 392 227 392 q 395 349 302 392 q 437 328 408 342 q 490 302 465 315 q 567 290 515 290 q 699 347 643 290 q 782 469 755 403 l 668 586 q 545 505 623 505 q 429 538 496 506 q 335 578 362 570 q 252 586 308 586 q 142 545 197 586 "},"≠":{"ha":677,"x_min":56,"x_max":623,"o":"m 56 74 l 129 74 l 104 37 l 146 7 l 193 74 l 623 74 l 623 254 l 323 254 l 401 363 l 623 363 l 623 543 l 530 543 l 574 602 l 532 632 l 468 543 l 56 543 l 56 363 l 338 363 l 260 254 l 56 254 l 56 74 "},"≤":{"ha":726,"x_min":56,"x_max":671,"o":"m 671 0 l 671 170 l 56 170 l 56 0 l 671 0 m 629 467 l 629 661 l 81 530 l 81 325 l 629 195 l 629 389 l 245 428 l 629 467 "},"≥":{"ha":726,"x_min":56,"x_max":671,"o":"m 671 0 l 671 170 l 56 170 l 56 0 l 671 0 m 481 428 l 97 389 l 97 195 l 646 325 l 646 530 l 97 661 l 97 467 l 481 428 "},"◊":{"ha":935,"x_min":31,"x_max":904,"o":"m 575 464 l 467 211 l 359 464 l 467 714 l 575 464 m 654 925 l 279 925 l 31 464 l 279 0 l 654 0 l 904 464 l 654 925 "},"":{"ha":1071,"x_min":83,"x_max":1008,"o":"m 1008 463 l 1008 925 l 83 925 l 83 0 l 546 0 l 546 463 l 1008 463 "},"ﬀ":{"ha":1116,"x_min":7,"x_max":1120,"o":"m 997 755 q 1044 734 1021 755 l 1120 848 q 890 939 1024 939 q 684 882 755 939 q 612 724 612 825 q 623 647 613 686 l 437 647 q 416 705 416 677 q 464 755 416 755 q 498 746 481 755 l 557 869 q 347 939 472 939 q 152 882 222 939 q 81 724 81 825 q 90 647 81 686 l 7 647 l 7 524 l 90 524 l 90 0 l 452 0 l 452 524 l 623 524 l 623 0 l 983 0 l 983 524 l 1086 524 l 1086 647 l 970 647 q 949 705 949 676 q 997 755 949 755 "},"ﬁ":{"ha":1018,"x_min":7,"x_max":970,"o":"m 970 0 l 970 647 l 608 647 l 608 0 l 970 0 m 970 693 l 970 925 l 608 925 l 608 693 l 970 693 m 541 647 l 437 647 q 419 719 419 682 q 454 755 419 755 q 496 742 477 755 l 557 861 q 351 939 479 939 q 152 882 224 939 q 81 724 81 825 q 90 647 81 686 l 7 647 l 7 524 l 90 524 l 90 0 l 452 0 l 452 524 l 541 524 l 541 647 "},"ﬂ":{"ha":1025,"x_min":7,"x_max":977,"o":"m 977 0 l 977 925 l 615 925 l 615 0 l 977 0 m 464 755 q 513 734 490 755 l 587 848 q 357 939 492 939 q 152 882 223 939 q 81 724 81 825 q 90 647 81 686 l 7 647 l 7 510 l 90 510 l 90 0 l 452 0 l 452 510 l 554 510 l 554 647 l 437 647 q 416 705 416 676 q 464 755 418 755 "},"ﬃ":{"ha":1536,"x_min":7,"x_max":1487,"o":"m 1487 693 l 1487 925 l 1126 925 l 1126 693 l 1487 693 m 1487 0 l 1487 647 l 1126 647 l 1126 0 l 1487 0 m 452 524 l 623 524 l 623 0 l 983 0 l 983 524 l 1072 524 l 1072 647 l 970 647 q 951 719 951 682 q 986 755 951 755 q 1028 742 1010 755 l 1089 861 q 883 939 1010 939 q 684 882 755 939 q 612 724 612 825 q 623 647 613 686 l 437 647 q 416 705 416 677 q 464 755 416 755 q 498 746 481 755 l 557 869 q 347 939 472 939 q 152 882 222 939 q 81 724 81 825 q 90 647 81 686 l 7 647 l 7 524 l 90 524 l 90 0 l 452 0 l 452 524 "},"ﬄ":{"ha":1556,"x_min":7,"x_max":1508,"o":"m 997 755 q 1044 734 1021 755 l 1120 848 q 890 939 1024 939 q 684 882 755 939 q 612 724 612 825 q 623 647 613 686 l 437 647 q 416 705 416 677 q 464 755 416 755 q 498 746 481 755 l 557 869 q 347 939 472 939 q 152 882 222 939 q 81 724 81 825 q 90 647 81 686 l 7 647 l 7 524 l 90 524 l 90 0 l 452 0 l 452 524 l 623 524 l 623 0 l 983 0 l 983 524 l 1086 524 l 1086 647 l 970 647 q 949 705 949 676 q 997 755 949 755 m 1508 0 l 1508 925 l 1147 925 l 1147 0 l 1508 0 "}}}
